<svg viewBox="0 0 1661.3 978" xmlns="http://www.w3.org/2000/svg" xmlns:xlink="http://www.w3.org/1999/xlink"><clipPath id="a"><path d="m512.9 751v-114.2l18.6 10.7v92.9l344.3 199.6 126.4-73.3v20.1l-126.4 73.2z"/></clipPath><linearGradient id="b"><stop offset="0" stop-color="#0ff"/><stop offset="1" stop-color="#00f"/></linearGradient><linearGradient id="c" gradientTransform="matrix(-1 0 0 -1 5195.268 1920.448)" gradientUnits="userSpaceOnUse" x1="4532.514" x2="4675.289" xlink:href="#b" y1="1196.141" y2="1196.141"/><linearGradient id="d" gradientTransform="matrix(-1 0 0 -1 5195.268 1920.448)" gradientUnits="userSpaceOnUse" x1="4536.361" x2="4724.8" xlink:href="#b" y1="1183.659" y2="1183.659"/><linearGradient id="e" gradientTransform="matrix(-1 0 0 -1 5195.268 1920.448)" gradientUnits="userSpaceOnUse" x1="4442.542" x2="4630.982" xlink:href="#b" y1="1124.808" y2="1124.808"/><linearGradient id="f" gradientTransform="matrix(-1 0 0 -1 5195.268 1920.448)" gradientUnits="userSpaceOnUse" x1="4171.932" x2="4360.371" xlink:href="#b" y1="946.515" y2="946.515"/><linearGradient id="g" gradientTransform="matrix(-1 0 0 -1 5195.268 1920.448)" gradientUnits="userSpaceOnUse" x1="4619.612" x2="4719.336" xlink:href="#b" y1="1179.636" y2="1179.636"/><linearGradient id="h" gradientTransform="matrix(-1 0 0 -1 5195.268 1920.448)" gradientUnits="userSpaceOnUse" x1="4630.011" x2="4727.242" xlink:href="#b" y1="1167.449" y2="1167.449"/><linearGradient id="i" gradientTransform="matrix(-1 0 0 -1 5195.268 1920.448)" gradientUnits="userSpaceOnUse" x1="4557.533" x2="4700.308" xlink:href="#b" y1="1127.587" y2="1127.587"/><linearGradient id="j" gradientTransform="matrix(-1 0 0 -1 5195.268 1920.448)" gradientUnits="userSpaceOnUse" x1="4611.951" x2="4800.391" xlink:href="#b" y1="1144.764" y2="1144.764"/><linearGradient id="k" gradientTransform="matrix(-1 0 0 -1 5195.268 1920.448)" gradientUnits="userSpaceOnUse" x1="4615.273" x2="4712.002" xlink:href="#b" y1="1204.29" y2="1204.29"/><linearGradient id="l" gradientTransform="matrix(-1 0 0 -1 5195.268 1920.448)" gradientUnits="userSpaceOnUse" x1="4703.979" x2="4794.693" xlink:href="#b" y1="1205.288" y2="1205.288"/><linearGradient id="m" gradientTransform="matrix(-1 0 0 -1 5195.268 1920.448)" gradientUnits="userSpaceOnUse" x1="4586.932" x2="4775.371" xlink:href="#b" y1="1213.318" y2="1213.318"/><linearGradient id="n" gradientTransform="matrix(-1 0 0 -1 5195.268 1920.448)" gradientUnits="userSpaceOnUse" x1="4653.939" x2="4744.653" xlink:href="#b" y1="1285.009" y2="1285.009"/><linearGradient id="o" gradientTransform="matrix(-1 0 0 -1 5195.268 1920.448)" gradientUnits="userSpaceOnUse" x1="4481.943" x2="4624.718" xlink:href="#b" y1="1166.482" y2="1166.482"/><linearGradient id="p" gradientTransform="matrix(-1 0 0 -1 5195.268 1920.448)" gradientUnits="userSpaceOnUse" x1="4621.435" x2="4764.21" xlink:href="#b" y1="1178.73" y2="1178.73"/><linearGradient id="q" gradientTransform="matrix(-1 0 0 -1 5195.268 1920.448)" gradientUnits="userSpaceOnUse" x1="4648.065" x2="4744.793" xlink:href="#b" y1="1260.191" y2="1260.191"/><linearGradient id="r" gradientTransform="matrix(-1 0 0 -1 5195.268 1920.448)" gradientUnits="userSpaceOnUse" x1="4628.85" x2="4703.306" xlink:href="#b" y1="1258.417" y2="1258.417"/><linearGradient id="s" gradientTransform="matrix(-1 0 0 -1 5195.268 1920.448)" gradientUnits="userSpaceOnUse" x1="4528.635" x2="4628.36" xlink:href="#b" y1="1106.351" y2="1106.351"/><linearGradient id="t" gradientTransform="matrix(-1 0 0 -1 5195.268 1920.448)" gradientUnits="userSpaceOnUse" x1="4539.035" x2="4636.265" xlink:href="#b" y1="1094.164" y2="1094.164"/><linearGradient id="u" gradientTransform="matrix(-1 0 0 -1 5195.268 1920.448)" gradientUnits="userSpaceOnUse" x1="4428.895" x2="4532.968" xlink:href="#b" y1="1112.28" y2="1112.28"/><linearGradient id="v" gradientTransform="matrix(-1 0 0 -1 5195.268 1920.448)" gradientUnits="userSpaceOnUse" x1="4466.557" x2="4609.332" xlink:href="#b" y1="1054.302" y2="1054.302"/><linearGradient id="w" gradientTransform="matrix(-1 0 0 -1 5195.268 1920.448)" gradientUnits="userSpaceOnUse" x1="4480.477" x2="4538.462" xlink:href="#b" y1="1102.435" y2="1102.435"/><linearGradient id="x" gradientTransform="matrix(-1 0 0 -1 5195.268 1920.448)" gradientUnits="userSpaceOnUse" x1="4516.068" x2="4559.564" xlink:href="#b" y1="1108.605" y2="1108.605"/><linearGradient id="y" gradientTransform="matrix(-1 0 0 -1 5195.268 1920.448)" gradientUnits="userSpaceOnUse" x1="4524.296" x2="4621.025" xlink:href="#b" y1="1131.004" y2="1131.004"/><linearGradient id="z" gradientTransform="matrix(-1 0 0 -1 5195.268 1920.448)" gradientUnits="userSpaceOnUse" x1="4546.569" x2="4621.025" xlink:href="#b" y1="1160.393" y2="1160.393"/><linearGradient id="A" gradientTransform="matrix(-1 0 0 -1 5195.268 1920.448)" gradientUnits="userSpaceOnUse" x1="4613.002" x2="4703.717" xlink:href="#b" y1="1132.003" y2="1132.003"/><linearGradient id="B" gradientTransform="matrix(-1 0 0 -1 5195.268 1920.448)" gradientUnits="userSpaceOnUse" x1="4371.288" x2="4514.063" xlink:href="#b" y1="1103.87" y2="1103.87"/><linearGradient id="C" gradientTransform="matrix(-1 0 0 -1 5195.268 1920.448)" gradientUnits="userSpaceOnUse" x1="4517.734" x2="4608.448" xlink:href="#b" y1="1181.571" y2="1181.571"/><linearGradient id="D" gradientTransform="matrix(-1 0 0 -1 5195.268 1920.448)" gradientUnits="userSpaceOnUse" x1="4550.025" x2="4738.464" xlink:href="#b" y1="1253.46" y2="1253.46"/><linearGradient id="E" gradientTransform="matrix(-1 0 0 -1 5195.268 1920.448)" gradientUnits="userSpaceOnUse" x1="4365.837" x2="4465.561" xlink:href="#b" y1="1005.104" y2="1005.104"/><linearGradient id="F" gradientTransform="matrix(-1 0 0 -1 5195.268 1920.448)" gradientUnits="userSpaceOnUse" x1="4376.237" x2="4473.467" xlink:href="#b" y1="992.917" y2="992.917"/><linearGradient id="G" gradientTransform="matrix(-1 0 0 -1 5195.268 1920.448)" gradientUnits="userSpaceOnUse" x1="4266.096" x2="4370.17" xlink:href="#b" y1="1011.033" y2="1011.033"/><linearGradient id="H" gradientTransform="matrix(-1 0 0 -1 5195.268 1920.448)" gradientUnits="userSpaceOnUse" x1="4303.759" x2="4446.534" xlink:href="#b" y1="953.055" y2="953.055"/><linearGradient id="I" gradientTransform="matrix(-1 0 0 -1 5195.268 1920.448)" gradientUnits="userSpaceOnUse" x1="4358.177" x2="4546.616" xlink:href="#b" y1="970.232" y2="970.232"/><linearGradient id="J" gradientTransform="matrix(-1 0 0 -1 5195.268 1920.448)" gradientUnits="userSpaceOnUse" x1="4317.679" x2="4375.665" xlink:href="#b" y1="1001.189" y2="1001.189"/><linearGradient id="K" gradientTransform="matrix(-1 0 0 -1 5195.268 1920.448)" gradientUnits="userSpaceOnUse" x1="4353.27" x2="4396.765" xlink:href="#b" y1="1007.359" y2="1007.359"/><linearGradient id="L" gradientTransform="matrix(-1 0 0 -1 5195.268 1920.448)" gradientUnits="userSpaceOnUse" x1="4361.498" x2="4458.227" xlink:href="#b" y1="1029.757" y2="1029.757"/><linearGradient id="M" gradientTransform="matrix(-1 0 0 -1 5195.268 1920.448)" gradientUnits="userSpaceOnUse" x1="4450.205" x2="4540.919" xlink:href="#b" y1="1030.756" y2="1030.756"/><linearGradient id="N" gradientTransform="matrix(-1 0 0 -1 5195.268 1920.448)" gradientUnits="userSpaceOnUse" x1="4278.739" x2="4421.514" xlink:href="#b" y1="1021.609" y2="1021.609"/><linearGradient id="O" gradientTransform="matrix(-1 0 0 -1 5195.268 1920.448)" gradientUnits="userSpaceOnUse" x1="4333.157" x2="4521.597" xlink:href="#b" y1="1038.786" y2="1038.786"/><linearGradient id="P" gradientTransform="matrix(-1 0 0 -1 5195.268 1920.448)" gradientUnits="userSpaceOnUse" x1="4190.506" x2="4294.58" xlink:href="#b" y1="1049.928" y2="1049.928"/><linearGradient id="Q" gradientTransform="matrix(-1 0 0 -1 5195.268 1920.448)" gradientUnits="userSpaceOnUse" x1="4228.168" x2="4370.943" xlink:href="#b" y1="991.95" y2="991.95"/><linearGradient id="R" gradientTransform="matrix(-1 0 0 -1 5195.268 1920.448)" gradientUnits="userSpaceOnUse" x1="4282.586" x2="4471.026" xlink:href="#b" y1="1009.127" y2="1009.127"/><linearGradient id="S" gradientTransform="matrix(-1 0 0 -1 5195.268 1920.448)" gradientUnits="userSpaceOnUse" x1="4429.739" x2="4529.463" xlink:href="#b" y1="1056.247" y2="1056.247"/><linearGradient id="T" gradientTransform="matrix(-1 0 0 -1 5195.268 1920.448)" gradientUnits="userSpaceOnUse" x1="4440.138" x2="4537.369" xlink:href="#b" y1="1044.06" y2="1044.06"/><linearGradient id="U" gradientTransform="matrix(-1 0 0 -1 5195.268 1920.448)" gradientUnits="userSpaceOnUse" x1="4367.66" x2="4510.435" xlink:href="#b" y1="1004.198" y2="1004.198"/><linearGradient id="V" gradientTransform="matrix(-1 0 0 -1 5195.268 1920.448)" gradientUnits="userSpaceOnUse" x1="4422.078" x2="4610.518" xlink:href="#b" y1="1021.375" y2="1021.375"/><linearGradient id="W" gradientTransform="matrix(-1 0 0 -1 5195.268 1920.448)" gradientUnits="userSpaceOnUse" x1="4381.581" x2="4439.566" xlink:href="#b" y1="1052.332" y2="1052.332"/><linearGradient id="X" gradientTransform="matrix(-1 0 0 -1 5195.268 1920.448)" gradientUnits="userSpaceOnUse" x1="4425.4" x2="4522.128" xlink:href="#b" y1="1080.9" y2="1080.9"/><linearGradient id="Y" gradientTransform="matrix(-1 0 0 -1 5195.268 1920.448)" gradientUnits="userSpaceOnUse" x1="4514.106" x2="4604.82" xlink:href="#b" y1="1081.899" y2="1081.899"/><linearGradient id="Z" gradientTransform="matrix(-1 0 0 -1 5195.268 1920.448)" gradientUnits="userSpaceOnUse" x1="4270.522" x2="4367.25" xlink:href="#b" y1="956.472" y2="956.472"/><linearGradient id="aa" gradientTransform="matrix(-1 0 0 -1 5195.268 1920.448)" gradientUnits="userSpaceOnUse" x1="4292.794" x2="4367.251" xlink:href="#b" y1="985.861" y2="985.861"/><linearGradient id="ab" gradientTransform="matrix(-1 0 0 -1 5195.268 1920.448)" gradientUnits="userSpaceOnUse" x1="4178.446" x2="4280.436" xlink:href="#b" y1="991.708" y2="991.708"/><linearGradient id="ac" gradientTransform="matrix(-1 0 0 -1 5195.268 1920.448)" gradientUnits="userSpaceOnUse" x1="4189.992" x2="4287.222" xlink:href="#b" y1="969.2" y2="969.2"/><linearGradient id="ad" gradientTransform="matrix(-1 0 0 -1 5195.268 1920.448)" gradientUnits="userSpaceOnUse" x1="4175.253" x2="4271.981" xlink:href="#b" y1="1006.041" y2="1006.041"/><linearGradient id="ae" gradientTransform="matrix(-1 0 0 -1 5195.268 1920.448)" gradientUnits="userSpaceOnUse" x1="4197.525" x2="4271.981" xlink:href="#b" y1="1035.43" y2="1035.43"/><linearGradient id="af" gradientTransform="matrix(-1 0 0 -1 5195.268 1920.448)" gradientUnits="userSpaceOnUse" x1="4263.959" x2="4354.674" xlink:href="#b" y1="1007.039" y2="1007.039"/><linearGradient id="ag" gradientTransform="matrix(-1 0 0 -1 5195.268 1920.448)" gradientUnits="userSpaceOnUse" x1="4083.177" x2="4185.167" xlink:href="#b" y1="1041.277" y2="1041.277"/><linearGradient id="ah" gradientTransform="matrix(-1 0 0 -1 5195.268 1920.448)" gradientUnits="userSpaceOnUse" x1="4385.67" x2="4574.11" xlink:href="#b" y1="1128.641" y2="1128.641"/><linearGradient id="ai" gradientTransform="matrix(-1 0 0 -1 5195.268 1920.448)" gradientUnits="userSpaceOnUse" x1="4173.125" x2="4270.355" xlink:href="#b" y1="1007.047" y2="1007.047"/><linearGradient id="aj" gradientTransform="matrix(-1 0 0 -1 5195.268 1920.448)" gradientUnits="userSpaceOnUse" x1="4167.065" x2="4355.504" xlink:href="#b" y1="972.24" y2="972.24"/><linearGradient id="ak" gradientTransform="matrix(-1 0 0 -1 5195.268 1920.448)" gradientUnits="userSpaceOnUse" x1="4137.395" x2="4234.123" xlink:href="#b" y1="1018.552" y2="1018.552"/><linearGradient id="al" gradientTransform="matrix(-1 0 0 -1 5195.268 1920.448)" gradientUnits="userSpaceOnUse" x1="4159.667" x2="4234.123" xlink:href="#b" y1="1047.941" y2="1047.941"/><linearGradient id="am" gradientTransform="matrix(-1 0 0 -1 5195.268 1920.448)" gradientUnits="userSpaceOnUse" x1="4226.101" x2="4316.815" xlink:href="#b" y1="1019.55" y2="1019.55"/><linearGradient id="an"><stop offset="0" stop-color="#5a5a5a"/><stop offset="1" stop-color="#888"/></linearGradient><linearGradient id="ao" gradientUnits="userSpaceOnUse" x1="983.724" x2="983.724" xlink:href="#an" y1="668.648" y2="824.885"/><linearGradient id="ap"><stop offset=".417" stop-color="#5a5a5a"/><stop offset="1" stop-color="#888"/></linearGradient><linearGradient id="aq" gradientUnits="userSpaceOnUse" x1="846.76" x2="1019.561" xlink:href="#ap" y1="715.972" y2="715.972"/><linearGradient id="ar"><stop offset="0" stop-color="#4d4d4d"/><stop offset="1" stop-color="#1a1a1a"/></linearGradient><linearGradient id="as" gradientUnits="userSpaceOnUse" x1="964.885" x2="831.965" xlink:href="#ar" y1="820.146" y2="820.146"/><linearGradient id="at" gradientUnits="userSpaceOnUse" x1="1042.786" x2="1042.786" xlink:href="#an" y1="831.292" y2="724.035"/><linearGradient id="au"><stop offset="0" stop-color="#0080ca"/><stop offset="1" stop-color="#29abe2"/></linearGradient><linearGradient id="av" gradientUnits="userSpaceOnUse" x1="849.302" x2="869.183" xlink:href="#au" y1="797.257" y2="797.257"/><linearGradient id="aw" gradientUnits="userSpaceOnUse" x1="924.66" x2="924.66" xlink:href="#an" y1="763.093" y2="655.836"/><linearGradient id="ax"><stop offset="0" stop-color="#ed0f3a"/><stop offset="1" stop-color="#ba0f40"/></linearGradient><radialGradient id="ay" cx="906.863" cy="818.344" gradientUnits="userSpaceOnUse" r="5.586" xlink:href="#ax"/><radialGradient id="az" cx="921.426" cy="826.752" gradientUnits="userSpaceOnUse" r="5.586" xlink:href="#ax"/><radialGradient id="aA" cx="935.527" cy="834.894" gradientUnits="userSpaceOnUse" r="5.586" xlink:href="#ax"/><radialGradient id="aB" cx="928.361" cy="844.102" gradientUnits="userSpaceOnUse" r="5.586" xlink:href="#ax"/><linearGradient id="aC" gradientUnits="userSpaceOnUse" x1="1141.783" x2="1141.783" xlink:href="#an" y1="759.904" y2="916.141"/><linearGradient id="aD" gradientUnits="userSpaceOnUse" x1="1004.819" x2="1177.62" xlink:href="#ap" y1="807.228" y2="807.228"/><linearGradient id="aE" gradientUnits="userSpaceOnUse" x1="1122.945" x2="990.025" xlink:href="#ar" y1="911.402" y2="911.402"/><linearGradient id="aF" gradientUnits="userSpaceOnUse" x1="1200.845" x2="1200.845" xlink:href="#an" y1="922.548" y2="815.291"/><linearGradient id="aG" gradientUnits="userSpaceOnUse" x1="1007.362" x2="1027.242" xlink:href="#au" y1="888.513" y2="888.513"/><linearGradient id="aH" gradientUnits="userSpaceOnUse" x1="1082.72" x2="1082.72" xlink:href="#an" y1="854.349" y2="747.092"/><radialGradient id="aI" cx="1064.922" cy="909.601" gradientUnits="userSpaceOnUse" r="5.586" xlink:href="#ax"/><radialGradient id="aJ" cx="1079.486" cy="918.009" gradientUnits="userSpaceOnUse" r="5.586" xlink:href="#ax"/><radialGradient id="aK" cx="1072.088" cy="927.084" gradientUnits="userSpaceOnUse" r="5.586" xlink:href="#ax"/><radialGradient id="aL" cx="1100.753" cy="943.633" gradientUnits="userSpaceOnUse" r="5.586" xlink:href="#ax"/><linearGradient id="aM" gradientUnits="userSpaceOnUse" x1="983.724" x2="983.724" xlink:href="#an" y1="598.427" y2="754.664"/><linearGradient id="aN" gradientUnits="userSpaceOnUse" x1="846.76" x2="1019.561" xlink:href="#ap" y1="645.751" y2="645.751"/><linearGradient id="aO" gradientUnits="userSpaceOnUse" x1="964.885" x2="831.965" xlink:href="#ar" y1="749.925" y2="749.925"/><linearGradient id="aP" gradientUnits="userSpaceOnUse" x1="1042.786" x2="1042.786" xlink:href="#an" y1="761.072" y2="653.814"/><linearGradient id="aQ" gradientUnits="userSpaceOnUse" x1="849.302" x2="869.183" xlink:href="#au" y1="727.036" y2="727.036"/><linearGradient id="aR" gradientUnits="userSpaceOnUse" x1="924.66" x2="924.66" xlink:href="#an" y1="692.872" y2="585.615"/><radialGradient id="aS" cx="906.863" cy="748.124" gradientUnits="userSpaceOnUse" r="5.586" xlink:href="#ax"/><radialGradient id="aT" cx="921.426" cy="756.532" gradientUnits="userSpaceOnUse" r="5.586" xlink:href="#ax"/><radialGradient id="aU" cx="914.029" cy="765.607" gradientUnits="userSpaceOnUse" r="5.586" xlink:href="#ax"/><radialGradient id="aV" cx="942.693" cy="782.156" gradientUnits="userSpaceOnUse" r="5.586" xlink:href="#ax"/><linearGradient id="aW" gradientUnits="userSpaceOnUse" x1="1141.783" x2="1141.783" xlink:href="#an" y1="689.683" y2="845.92"/><linearGradient id="aX" gradientUnits="userSpaceOnUse" x1="1004.819" x2="1177.62" xlink:href="#ap" y1="737.007" y2="737.007"/><linearGradient id="aY" gradientUnits="userSpaceOnUse" x1="1122.945" x2="990.025" xlink:href="#ar" y1="841.181" y2="841.181"/><linearGradient id="aZ" gradientUnits="userSpaceOnUse" x1="1200.845" x2="1200.845" xlink:href="#an" y1="852.328" y2="745.07"/><linearGradient id="a0" gradientUnits="userSpaceOnUse" x1="1007.362" x2="1027.242" xlink:href="#au" y1="818.292" y2="818.292"/><linearGradient id="a1" gradientUnits="userSpaceOnUse" x1="1082.72" x2="1082.72" xlink:href="#an" y1="784.129" y2="676.871"/><radialGradient id="a2" cx="1064.922" cy="839.38" gradientUnits="userSpaceOnUse" r="5.586" xlink:href="#ax"/><radialGradient id="a3" cx="1079.486" cy="847.788" gradientUnits="userSpaceOnUse" r="5.586" xlink:href="#ax"/><radialGradient id="a4" cx="1057.987" cy="848.722" gradientUnits="userSpaceOnUse" r="5.586" xlink:href="#ax"/><radialGradient id="a5" cx="1072.088" cy="856.863" gradientUnits="userSpaceOnUse" r="5.586" xlink:href="#ax"/><radialGradient id="a6" cx="1086.42" cy="865.138" gradientUnits="userSpaceOnUse" r="5.586" xlink:href="#ax"/><linearGradient id="a7" gradientUnits="userSpaceOnUse" x1="983.724" x2="983.724" xlink:href="#an" y1="528.206" y2="684.443"/><linearGradient id="a8" gradientUnits="userSpaceOnUse" x1="846.76" x2="1019.561" xlink:href="#ap" y1="575.53" y2="575.53"/><linearGradient id="a9" gradientUnits="userSpaceOnUse" x1="964.885" x2="831.965" xlink:href="#ar" y1="679.704" y2="679.704"/><linearGradient id="ba" gradientUnits="userSpaceOnUse" x1="1042.786" x2="1042.786" xlink:href="#an" y1="690.851" y2="583.593"/><linearGradient id="bb" gradientUnits="userSpaceOnUse" x1="849.302" x2="869.183" xlink:href="#au" y1="656.815" y2="656.815"/><linearGradient id="bc" gradientUnits="userSpaceOnUse" x1="924.66" x2="924.66" xlink:href="#an" y1="622.652" y2="515.394"/><radialGradient id="bd" cx="906.863" cy="677.903" gradientUnits="userSpaceOnUse" r="5.586" xlink:href="#ax"/><radialGradient id="be" cx="921.426" cy="686.311" gradientUnits="userSpaceOnUse" r="5.586" xlink:href="#ax"/><radialGradient id="bf" cx="899.928" cy="687.245" gradientUnits="userSpaceOnUse" r="5.586" xlink:href="#ax"/><radialGradient id="bg" cx="914.029" cy="695.386" gradientUnits="userSpaceOnUse" r="5.586" xlink:href="#ax"/><radialGradient id="bh" cx="928.361" cy="703.661" gradientUnits="userSpaceOnUse" r="5.586" xlink:href="#ax"/><linearGradient id="bi" gradientUnits="userSpaceOnUse" x1="1141.783" x2="1141.783" xlink:href="#an" y1="619.462" y2="775.699"/><linearGradient id="bj" gradientUnits="userSpaceOnUse" x1="1004.819" x2="1177.62" xlink:href="#ap" y1="666.786" y2="666.786"/><linearGradient id="bk" gradientUnits="userSpaceOnUse" x1="1122.945" x2="990.025" xlink:href="#ar" y1="770.961" y2="770.961"/><linearGradient id="bl" gradientUnits="userSpaceOnUse" x1="1200.845" x2="1200.845" xlink:href="#an" y1="782.107" y2="674.85"/><linearGradient id="bm" gradientUnits="userSpaceOnUse" x1="1007.362" x2="1027.242" xlink:href="#au" y1="748.072" y2="748.072"/><linearGradient id="bn" gradientUnits="userSpaceOnUse" x1="1082.72" x2="1082.72" xlink:href="#an" y1="713.908" y2="606.65"/><radialGradient id="bo" cx="1064.922" cy="769.159" gradientUnits="userSpaceOnUse" r="5.586" xlink:href="#ax"/><radialGradient id="bp" cx="1079.486" cy="777.567" gradientUnits="userSpaceOnUse" r="5.586" xlink:href="#ax"/><radialGradient id="bq" cx="1057.987" cy="778.501" gradientUnits="userSpaceOnUse" r="5.586" xlink:href="#ax"/><radialGradient id="br" cx="1100.753" cy="803.192" gradientUnits="userSpaceOnUse" r="5.586" xlink:href="#ax"/><linearGradient id="bs" gradientUnits="userSpaceOnUse" x1="983.724" x2="983.724" xlink:href="#an" y1="457.986" y2="614.222"/><linearGradient id="bt" gradientUnits="userSpaceOnUse" x1="846.76" x2="1019.561" xlink:href="#ap" y1="505.31" y2="505.31"/><linearGradient id="bu" gradientUnits="userSpaceOnUse" x1="964.885" x2="831.965" xlink:href="#ar" y1="609.484" y2="609.484"/><linearGradient id="bv" gradientUnits="userSpaceOnUse" x1="1042.786" x2="1042.786" xlink:href="#an" y1="620.63" y2="513.373"/><linearGradient id="bw" gradientUnits="userSpaceOnUse" x1="849.302" x2="869.183" xlink:href="#au" y1="586.595" y2="586.595"/><linearGradient id="bx" gradientUnits="userSpaceOnUse" x1="924.66" x2="924.66" xlink:href="#an" y1="552.431" y2="445.173"/><radialGradient id="by" cx="906.863" cy="607.682" gradientUnits="userSpaceOnUse" r="5.586" xlink:href="#ax"/><radialGradient id="bz" cx="921.426" cy="616.09" gradientUnits="userSpaceOnUse" r="5.586" xlink:href="#ax"/><radialGradient id="bA" cx="935.527" cy="624.231" gradientUnits="userSpaceOnUse" r="5.586" xlink:href="#ax"/><radialGradient id="bB" cx="899.928" cy="617.024" gradientUnits="userSpaceOnUse" r="5.586" xlink:href="#ax"/><radialGradient id="bC" cx="928.361" cy="633.44" gradientUnits="userSpaceOnUse" r="5.586" xlink:href="#ax"/><linearGradient id="bD" gradientUnits="userSpaceOnUse" x1="1141.783" x2="1141.783" xlink:href="#an" y1="549.242" y2="705.479"/><linearGradient id="bE" gradientUnits="userSpaceOnUse" x1="1004.819" x2="1177.62" xlink:href="#ap" y1="596.566" y2="596.566"/><linearGradient id="bF" gradientUnits="userSpaceOnUse" x1="1122.945" x2="990.025" xlink:href="#ar" y1="700.74" y2="700.74"/><linearGradient id="bG" gradientUnits="userSpaceOnUse" x1="1200.845" x2="1200.845" xlink:href="#an" y1="711.886" y2="604.629"/><linearGradient id="bH" gradientUnits="userSpaceOnUse" x1="1007.362" x2="1027.242" xlink:href="#au" y1="677.851" y2="677.851"/><linearGradient id="bI" gradientUnits="userSpaceOnUse" x1="1082.72" x2="1082.72" xlink:href="#an" y1="643.687" y2="536.43"/><radialGradient id="bJ" cx="1064.922" cy="698.938" gradientUnits="userSpaceOnUse" r="5.586" xlink:href="#ax"/><radialGradient id="bK" cx="1079.486" cy="707.346" gradientUnits="userSpaceOnUse" r="5.586" xlink:href="#ax"/><radialGradient id="bL" cx="1057.987" cy="708.28" gradientUnits="userSpaceOnUse" r="5.586" xlink:href="#ax"/><radialGradient id="bM" cx="1072.088" cy="716.422" gradientUnits="userSpaceOnUse" r="5.586" xlink:href="#ax"/><linearGradient id="bN" gradientUnits="userSpaceOnUse" x1="983.724" x2="983.724" xlink:href="#an" y1="387.765" y2="544.001"/><linearGradient id="bO" gradientUnits="userSpaceOnUse" x1="846.76" x2="1019.561" xlink:href="#ap" y1="435.089" y2="435.089"/><linearGradient id="bP" gradientUnits="userSpaceOnUse" x1="964.885" x2="831.965" xlink:href="#ar" y1="539.263" y2="539.263"/><linearGradient id="bQ" gradientUnits="userSpaceOnUse" x1="1042.786" x2="1042.786" xlink:href="#an" y1="550.409" y2="443.152"/><linearGradient id="bR" gradientUnits="userSpaceOnUse" x1="849.302" x2="869.183" xlink:href="#au" y1="516.374" y2="516.374"/><linearGradient id="bS" gradientUnits="userSpaceOnUse" x1="924.66" x2="924.66" xlink:href="#an" y1="482.21" y2="374.953"/><radialGradient id="bT" cx="906.863" cy="537.461" gradientUnits="userSpaceOnUse" r="5.586" xlink:href="#ax"/><radialGradient id="bU" cx="921.426" cy="545.869" gradientUnits="userSpaceOnUse" r="5.586" xlink:href="#ax"/><radialGradient id="bV" cx="935.527" cy="554.011" gradientUnits="userSpaceOnUse" r="5.586" xlink:href="#ax"/><radialGradient id="bW" cx="914.029" cy="554.945" gradientUnits="userSpaceOnUse" r="5.586" xlink:href="#ax"/><linearGradient id="bX" gradientUnits="userSpaceOnUse" x1="1141.783" x2="1141.783" xlink:href="#an" y1="479.021" y2="635.258"/><linearGradient id="bY" gradientUnits="userSpaceOnUse" x1="1004.819" x2="1177.62" xlink:href="#ap" y1="526.345" y2="526.345"/><linearGradient id="bZ" gradientUnits="userSpaceOnUse" x1="1122.945" x2="990.025" xlink:href="#ar" y1="630.519" y2="630.519"/><linearGradient id="b0" gradientUnits="userSpaceOnUse" x1="1200.845" x2="1200.845" xlink:href="#an" y1="641.666" y2="534.408"/><linearGradient id="b1" gradientUnits="userSpaceOnUse" x1="1007.362" x2="1027.242" xlink:href="#au" y1="607.63" y2="607.63"/><linearGradient id="b2" gradientUnits="userSpaceOnUse" x1="1082.72" x2="1082.72" xlink:href="#an" y1="573.466" y2="466.209"/><radialGradient id="b3" cx="1064.922" cy="628.717" gradientUnits="userSpaceOnUse" r="5.586" xlink:href="#ax"/><radialGradient id="b4" cx="1079.486" cy="637.126" gradientUnits="userSpaceOnUse" r="5.586" xlink:href="#ax"/><radialGradient id="b5" cx="1057.987" cy="638.06" gradientUnits="userSpaceOnUse" r="5.586" xlink:href="#ax"/><radialGradient id="b6" cx="1072.088" cy="646.201" gradientUnits="userSpaceOnUse" r="5.586" xlink:href="#ax"/><radialGradient id="b7" cx="1086.42" cy="654.476" gradientUnits="userSpaceOnUse" r="5.586" xlink:href="#ax"/><linearGradient id="b8" gradientUnits="userSpaceOnUse" x1="983.724" x2="983.724" xlink:href="#an" y1="317.544" y2="473.781"/><linearGradient id="b9" gradientUnits="userSpaceOnUse" x1="846.76" x2="1019.561" xlink:href="#ap" y1="364.868" y2="364.868"/><linearGradient id="ca" gradientUnits="userSpaceOnUse" x1="964.885" x2="831.965" xlink:href="#ar" y1="469.042" y2="469.042"/><linearGradient id="cb" gradientUnits="userSpaceOnUse" x1="1042.786" x2="1042.786" xlink:href="#an" y1="480.189" y2="372.931"/><linearGradient id="cc" gradientUnits="userSpaceOnUse" x1="849.302" x2="869.183" xlink:href="#au" y1="446.153" y2="446.153"/><linearGradient id="cd" gradientUnits="userSpaceOnUse" x1="924.66" x2="924.66" xlink:href="#an" y1="411.989" y2="304.732"/><radialGradient id="ce" cx="906.863" cy="467.24" gradientUnits="userSpaceOnUse" r="5.586" xlink:href="#ax"/><radialGradient id="cf" cx="921.426" cy="475.649" gradientUnits="userSpaceOnUse" r="5.586" xlink:href="#ax"/><radialGradient id="cg" cx="914.029" cy="484.724" gradientUnits="userSpaceOnUse" r="5.586" xlink:href="#ax"/><radialGradient id="ch" cx="942.693" cy="501.273" gradientUnits="userSpaceOnUse" r="5.586" xlink:href="#ax"/><linearGradient id="ci" gradientUnits="userSpaceOnUse" x1="983.724" x2="983.724" xlink:href="#an" y1="247.323" y2="403.56"/><linearGradient id="cj" gradientUnits="userSpaceOnUse" x1="846.76" x2="1019.561" xlink:href="#ap" y1="294.647" y2="294.647"/><linearGradient id="ck" gradientUnits="userSpaceOnUse" x1="964.885" x2="831.965" xlink:href="#ar" y1="398.821" y2="398.821"/><linearGradient id="cl" gradientUnits="userSpaceOnUse" x1="1042.786" x2="1042.786" xlink:href="#an" y1="409.968" y2="302.71"/><linearGradient id="cm" gradientUnits="userSpaceOnUse" x1="849.302" x2="869.183" xlink:href="#au" y1="375.932" y2="375.932"/><linearGradient id="cn" gradientUnits="userSpaceOnUse" x1="924.66" x2="924.66" xlink:href="#an" y1="341.769" y2="234.511"/><radialGradient id="co" cx="906.863" cy="397.02" gradientUnits="userSpaceOnUse" r="5.586" xlink:href="#ax"/><radialGradient id="cp" cx="899.928" cy="406.362" gradientUnits="userSpaceOnUse" r="5.586" xlink:href="#ax"/><linearGradient id="cq" gradientUnits="userSpaceOnUse" x1="1141.783" x2="1141.783" xlink:href="#an" y1="408.8" y2="565.037"/><linearGradient id="cr" gradientUnits="userSpaceOnUse" x1="1004.819" x2="1177.62" xlink:href="#ap" y1="456.124" y2="456.124"/><linearGradient id="cs" gradientUnits="userSpaceOnUse" x1="1122.945" x2="990.025" xlink:href="#ar" y1="560.298" y2="560.298"/><linearGradient id="ct" gradientUnits="userSpaceOnUse" x1="1200.845" x2="1200.845" xlink:href="#an" y1="571.445" y2="464.187"/><linearGradient id="cu" gradientUnits="userSpaceOnUse" x1="1007.362" x2="1027.242" xlink:href="#au" y1="537.409" y2="537.409"/><linearGradient id="cv" gradientUnits="userSpaceOnUse" x1="1082.72" x2="1082.72" xlink:href="#an" y1="503.246" y2="395.988"/><radialGradient id="cw" cx="1064.922" cy="558.497" gradientUnits="userSpaceOnUse" r="5.586" xlink:href="#ax"/><radialGradient id="cx" cx="1057.987" cy="567.839" gradientUnits="userSpaceOnUse" r="5.586" xlink:href="#ax"/><radialGradient id="cy" cx="1072.088" cy="575.98" gradientUnits="userSpaceOnUse" r="5.586" xlink:href="#ax"/><radialGradient id="cz" cx="1086.42" cy="584.255" gradientUnits="userSpaceOnUse" r="5.586" xlink:href="#ax"/><radialGradient id="cA" cx="1100.753" cy="592.529" gradientUnits="userSpaceOnUse" r="5.586" xlink:href="#ax"/><linearGradient id="cB"><stop offset="0" stop-opacity="0"/><stop offset=".999"/></linearGradient><linearGradient id="cC" gradientTransform="matrix(.866 .5 0 1.1547 24.473 -1145.186)" gradientUnits="userSpaceOnUse" x1="695.491" x2="695.491" xlink:href="#cB" y1="850.003" y2="847.513"/><linearGradient id="cD" gradientTransform="matrix(.866 .5 0 1.1547 24.473 -1145.186)" gradientUnits="userSpaceOnUse" x1="661.207" x2="661.207" xlink:href="#cB" y1="879.905" y2="877.414"/><linearGradient id="cE" gradientTransform="matrix(.866 .5 0 1.1547 24.473 -1145.186)" gradientUnits="userSpaceOnUse" x1="626.923" x2="626.923" xlink:href="#cB" y1="909.806" y2="907.316"/><linearGradient id="cF" gradientTransform="matrix(-.866 -.5 0 -1.1547 4175.61 1801.723)" gradientUnits="userSpaceOnUse" x1="4184.285" x2="4184.285" xlink:href="#cB" y1="-783.954" y2="-786.445"/><linearGradient id="cG" gradientTransform="matrix(0 -1.1547 .866 .5 2460.945 3121.618)" gradientUnits="userSpaceOnUse" x1="1358.753" x2="1358.753" xlink:href="#cB" y1="-2387.751" y2="-2390.627"/><linearGradient id="cH" gradientTransform="matrix(.866 .5 0 1.1547 24.473 -1145.186)" gradientUnits="userSpaceOnUse" x1="596.16" x2="596.16" xlink:href="#cB" y1="936.659" y2="934.168"/><path d="m512.9 751v-114.2l18.6 10.7v92.9l344.3 199.6 126.4-73.3v20.1l-126.4 73.2z" fill="#fff"/><g clip-path="url(#a)"><path d="m619.5 681 43.3 86.6-142.8-20.1z" fill="url(#c)" opacity=".2"/><path d="m658.9 723.6-163.9 76.2-24.5-126z" fill="url(#d)" opacity=".2"/><path d="m752.7 782.5-163.9 76.2-24.5-126.1z" fill="url(#e)" opacity=".2"/><path d="m1023.3 960.8-163.9 76.2-24.5-126.1z" fill="url(#f)" opacity=".2"/><path d="m575.7 771.7-26.8-61.8-73 45.3z" fill="url(#g)" opacity=".2"/><path d="m565.3 725.7-42 54.6-55.3-49.8z" fill="url(#h)" opacity=".2"/><path d="m594.4 749.5 43.3 86.7-142.7-20.1z" fill="url(#i)" opacity=".2"/><path d="m583.3 762.5-163.9 76.2-24.5-126z" fill="url(#j)" opacity=".2"/><path d="m545.8 687.7 34.2 56.9-96.7-10.1z" fill="url(#k)" opacity=".2"/><path d="m476.7 685.3 14.6 59.7-90.7-22z" fill="url(#l)" opacity=".2"/><path d="m608.3 694-163.9 76.2-24.5-126.1z" fill="url(#m)" opacity=".2"/><path d="m526.7 605.6 14.6 59.7-90.7-22z" fill="url(#n)" opacity=".2"/><path d="m670 710.6 43.3 86.7-142.7-20.1z" fill="url(#o)" opacity=".2"/><path d="m530.5 698.4 43.3 86.7-142.7-20.1z" fill="url(#p)" opacity=".2"/><path d="m513 631.8 34.2 56.9-96.7-10.1z" fill="url(#q)" opacity=".2"/><path d="m492 667.7 63.9-30.4 10.5 49.5z" fill="url(#r)" opacity=".2"/><path d="m666.6 845-26.7-61.8-73 45.2z" fill="url(#s)" opacity=".2"/><path d="m656.2 799-41.9 54.6-55.3-49.8z" fill="url(#t)" opacity=".2"/><path d="m662.3 804.8 104.1-32.7-6.3 72.2z" fill="url(#u)" opacity=".2"/><path d="m685.4 822.8 43.3 86.7-142.8-20.1z" fill="url(#v)" opacity=".2"/><path d="m684.2 802.2 30.6 30.5-58 1.2z" fill="url(#w)" opacity=".2"/><path d="m635.7 808.9 43.5-11.6-5.6 29.1z" fill="url(#x)" opacity=".2"/><path d="m636.7 761 34.3 56.9-96.8-10.1z" fill="url(#y)" opacity=".2"/><path d="m574.2 765.7 64-30.4 10.5 49.5z" fill="url(#z)" opacity=".2"/><path d="m567.7 758.6 14.6 59.7-90.7-22z" fill="url(#A)" opacity=".2"/><path d="m780.7 773.2 43.3 86.7-142.8-20.1z" fill="url(#B)" opacity=".2"/><path d="m662.9 709 14.6 59.7-90.7-22z" fill="url(#C)" opacity=".2"/><path d="m645.2 653.8-163.9 76.2-24.5-126z" fill="url(#D)" opacity=".2"/><path d="m829.4 946.2-26.7-61.8-73 45.3z" fill="url(#E)" opacity=".2"/><path d="m819 900.2-41.9 54.6-55.3-49.8z" fill="url(#F)" opacity=".2"/><path d="m825.1 906 104.1-32.7-6.3 72.2z" fill="url(#G)" opacity=".2"/><path d="m848.2 924.1 43.3 86.6-142.8-20.1z" fill="url(#H)" opacity=".2"/><path d="m837.1 937.1-163.9 76.1-24.5-126z" fill="url(#I)" opacity=".2"/><path d="m847 903.4 30.6 30.6-58 1.1z" fill="url(#J)" opacity=".2"/><path d="m798.5 910.1 43.5-11.6-5.6 29.2z" fill="url(#K)" opacity=".2"/><path d="m799.5 862.2 34.3 57-96.8-10.1z" fill="url(#L)" opacity=".2"/><path d="m730.5 859.8 14.6 59.7-90.8-22z" fill="url(#M)" opacity=".2"/><path d="m873.2 855.5 43.3 86.7-142.7-20.1z" fill="url(#N)" opacity=".2"/><path d="m862.1 868.5-163.9 76.2-24.5-126.1z" fill="url(#O)" opacity=".2"/><path d="m900.7 867.1 104.1-32.7-6.4 72.2z" fill="url(#P)" opacity=".2"/><path d="m923.8 885.2 43.3 86.6-142.8-20.1z" fill="url(#Q)" opacity=".2"/><path d="m912.7 898.2-163.9 76.2-24.6-126.1z" fill="url(#R)" opacity=".2"/><path d="m765.5 895.1-26.7-61.8-73 45.2z" fill="url(#S)" opacity=".2"/><path d="m755.1 849.1-41.9 54.6-55.3-49.8z" fill="url(#T)" opacity=".2"/><path d="m784.3 872.9 43.3 86.7-142.8-20.1z" fill="url(#U)" opacity=".2"/><path d="m773.2 885.9-163.9 76.2-24.5-126.1z" fill="url(#V)" opacity=".2"/><path d="m783.1 852.3 30.6 30.5-58 1.2z" fill="url(#W)" opacity=".2"/><path d="m735.6 811.1 34.3 56.9-96.8-10.1z" fill="url(#X)" opacity=".2"/><path d="m666.6 808.7 14.6 59.7-90.8-22z" fill="url(#Y)" opacity=".2"/><path d="m890.5 935.5 34.2 57-96.7-10.1z" fill="url(#Z)" opacity=".2"/><path d="m828 940.2 63.9-30.4 10.6 49.5z" fill="url(#aa)" opacity=".2"/><path d="m927.7 962.9-12.9-68.3 102 27.2z" fill="url(#ab)" opacity=".2"/><path d="m1005.3 924-42 54.5-55.3-49.8z" fill="url(#ac)" opacity=".2"/><path d="m985.8 885.9 34.2 57-96.7-10.1z" fill="url(#ad)" opacity=".2"/><path d="m923.3 890.7 63.9-30.4 10.5 49.5z" fill="url(#ae)" opacity=".2"/><path d="m916.7 883.6 14.6 59.7-90.7-22.1z" fill="url(#af)" opacity=".2"/><path d="m1023 913.4-12.9-68.4 102 27.3z" fill="url(#ag)" opacity=".2"/><path d="m809.6 778.6-163.9 76.2-24.5-126z" fill="url(#ah)" opacity=".2"/><path d="m1022.1 886.1-41.9 54.6-55.3-49.8z" fill="url(#ai)" opacity=".2"/><path d="m1028.2 935-163.9 76.2-24.5-126z" fill="url(#aj)" opacity=".2"/><path d="m1023.6 873.4 34.3 57-96.8-10.1z" fill="url(#ak)" opacity=".2"/><path d="m961.1 878.2 64-30.4 10.5 49.5z" fill="url(#al)" opacity=".2"/><path d="m954.6 871.1 14.6 59.6-90.7-22z" fill="url(#am)" opacity=".2"/></g><path d="m848.6 767.4 171-98.8 99.2 57.8-170.6 98.5z" fill="url(#ao)"/><path d="m848.6 767.4 171-98.8-2.2-4-170.6 98.5z" fill="url(#aq)"/><path d="m948.2 824.9 1.9-2.2 14.8 8.6v54.4l-14.8-8.5-1.9-4.3-99.6-57.5-1.8 2.1-14.8-8.5v-54.5l14.8 8.6 1.8 4.3z" fill="#fff"/><path d="m948.2 824.9 1.8-2.1 14.8 8.5v54.5l-14.8-8.5-1.8-4.3-99.6-57.5-1.8 2.1-14.8-8.6v-54.5l14.8 8.5 1.8 4.3z" fill="url(#as)"/><path d="m964.9 885.7 170.9-98.7-.3-54.2-170.6 98.5z" fill="#5a5a5a"/><path d="m950.1 822.7 170.9-98.7 14.5 8.8-170.6 98.5z" fill="url(#at)"/><path d="m859.2 785.8c-5.5-3.2-9.9-.7-9.9 5.7s4.4 14 9.9 17.2 9.9.7 9.9-5.7-4.3-14-9.9-17.2z" fill="url(#av)"/><path d="m832 754.5 170.9-98.7 14.5 8.8-170.6 98.5z" fill="url(#aw)"/><ellipse cx="859.2" cy="797.3" fill="#fff" opacity=".5" rx="4.5" ry="7.8" transform="matrix(.8660254 -.5 .5 .8660254 -283.539998 536.442321)"/><path d="m888.1 804.3v6.4l4.7 5.9 4.6-.5v-6.4l-4.6-5.9z" fill="#ccc"/><path d="m902.2 812.5v6.4l4.7 5.9 4.6-.6v-6.4l-4.6-5.9z" fill="url(#ay)"/><path d="m916.8 820.9v6.4l4.6 5.9 4.6-.6v-6.4l-4.6-5.9z" fill="url(#az)"/><path d="m930.9 829v6.4l4.6 5.9 4.7-.5v-6.4l-4.7-5.9z" fill="url(#aA)"/><path d="m895.3 821.8v6.4l4.6 5.9 4.7-.5v-6.4l-4.7-5.9zm14.1 8.2v6.4l4.6 5.8 4.7-.5v-6.4l-4.7-5.9z" fill="#ccc"/><path d="m923.7 838.2v6.4l4.7 5.9 4.6-.5v-6.4l-4.6-5.9z" fill="url(#aB)"/><path d="m938.1 846.5v6.4l4.6 5.9 4.6-.6v-6.4l-4.6-5.8z" fill="#ccc"/><path d="m1006.7 858.6 170.9-98.7 99.3 57.7-170.6 98.5z" fill="url(#aC)"/><path d="m1006.7 858.6 170.9-98.7-2.2-4.1-170.6 98.5z" fill="url(#aD)"/><path d="m1106.3 916.1 1.9-2.1 14.7 8.5v54.5l-14.7-8.5-1.9-4.3-99.6-57.5-1.9 2.1-14.8-8.5v-54.5l14.8 8.5 1.9 4.3z" fill="#fff"/><path d="m1106.3 916.1 1.8-2.1 14.8 8.5v54.5l-14.8-8.5-1.8-4.3-99.6-57.5-1.8 2.1-14.8-8.5v-54.5l14.8 8.5 1.8 4.3z" fill="url(#aE)"/><path d="m1122.9 977 171-98.7-.4-54.3-170.6 98.5z" fill="#5a5a5a"/><path d="m1108.2 914 170.9-98.7 14.4 8.7-170.6 98.5z" fill="url(#aF)"/><path d="m1017.3 877c-5.5-3.2-9.9-.7-9.9 5.7s4.4 14 9.9 17.2 9.9.7 9.9-5.7-4.3-14-9.9-17.2z" fill="url(#aG)"/><path d="m990 845.8 171-98.7 14.4 8.7-170.6 98.5z" fill="url(#aH)"/><ellipse cx="1017.3" cy="888.5" fill="#fff" opacity=".5" rx="4.5" ry="7.8" transform="matrix(.8660254 -.5 .5 .8660254 -307.996705 627.700647)"/><path d="m1046.2 895.6v6.4l4.6 5.9 4.6-.6v-6.4l-4.6-5.8z" fill="#ccc"/><path d="m1060.3 903.7v6.4l4.6 5.9 4.6-.5v-6.4l-4.6-5.9z" fill="url(#aI)"/><path d="m1074.9 912.1v6.4l4.6 5.9 4.6-.5v-6.4l-4.6-5.9z" fill="url(#aJ)"/><path d="m1089 920.3v6.4l4.6 5.9 4.6-.6v-6.4l-4.6-5.9zm-35.6-7.2v6.4l4.6 5.8 4.6-.5v-6.4l-4.6-5.9z" fill="#ccc"/><path d="m1067.5 921.2v6.4l4.6 5.9 4.6-.5v-6.5l-4.6-5.8z" fill="url(#aK)"/><path d="m1081.8 929.5v6.4l4.6 5.9 4.6-.6v-6.4l-4.6-5.8z" fill="#ccc"/><path d="m1096.1 937.8v6.4l4.7 5.8 4.6-.5v-6.4l-4.6-5.9z" fill="url(#aL)"/><path d="m848.6 697.1 171-98.7 99.2 57.8-170.6 98.5z" fill="url(#aM)"/><path d="m848.6 697.1 171-98.7-2.2-4-170.6 98.5z" fill="url(#aN)"/><path d="m948.2 754.7 1.9-2.2 14.8 8.6v54.4l-14.8-8.5-1.9-4.3-99.6-57.5-1.8 2.1-14.8-8.5v-54.5l14.8 8.6 1.8 4.2z" fill="#fff"/><path d="m948.2 754.7 1.8-2.1 14.8 8.5v54.5l-14.8-8.5-1.8-4.3-99.6-57.5-1.8 2.1-14.8-8.5v-54.5l14.8 8.5 1.8 4.3z" fill="url(#aO)"/><path d="m964.9 815.5 170.9-98.7-.3-54.2-170.6 98.5z" fill="#5a5a5a"/><path d="m950.1 752.5 170.9-98.7 14.5 8.8-170.6 98.5z" fill="url(#aP)"/><path d="m859.2 715.6c-5.5-3.2-9.9-.7-9.9 5.7s4.4 14 9.9 17.2 9.9.7 9.9-5.7-4.3-14-9.9-17.2z" fill="url(#aQ)"/><path d="m832 684.3 170.9-98.7 14.5 8.8-170.6 98.5z" fill="url(#aR)"/><ellipse cx="859.2" cy="727" fill="#fff" opacity=".5" rx="4.5" ry="7.8" transform="matrix(.8660254 -.5 .5 .8660254 -248.42823 527.035223)"/><path d="m888.1 734.1v6.4l4.7 5.9 4.6-.5v-6.5l-4.6-5.8z" fill="#ccc"/><path d="m902.2 742.3v6.4l4.7 5.8 4.6-.5v-6.4l-4.6-5.9z" fill="url(#aS)"/><path d="m916.8 750.7v6.4l4.6 5.8 4.6-.5v-6.4l-4.6-5.9z" fill="url(#aT)"/><path d="m930.9 758.8v6.4l4.6 5.9 4.7-.6v-6.4l-4.7-5.8zm-35.6-7.2v6.4l4.6 5.9 4.7-.6v-6.4l-4.7-5.8z" fill="#ccc"/><path d="m909.4 759.7v6.4l4.6 5.9 4.7-.5v-6.4l-4.7-5.9z" fill="url(#aU)"/><path d="m923.7 768v6.4l4.7 5.9 4.6-.5v-6.5l-4.6-5.8z" fill="#ccc"/><path d="m938.1 776.3v6.4l4.6 5.9 4.6-.6v-6.4l-4.6-5.8z" fill="url(#aV)"/><path d="m1006.7 788.4 170.9-98.7 99.3 57.7-170.6 98.5z" fill="url(#aW)"/><path d="m1006.7 788.4 170.9-98.7-2.2-4.1-170.6 98.5z" fill="url(#aX)"/><path d="m1106.3 845.9 1.9-2.1 14.7 8.5v54.5l-14.7-8.6-1.9-4.2-99.6-57.6-1.9 2.2-14.8-8.6v-54.4l14.8 8.5 1.9 4.3z" fill="#fff"/><path d="m1106.3 845.9 1.8-2.1 14.8 8.5v54.5l-14.8-8.5-1.8-4.3-99.6-57.5-1.8 2.1-14.9-8.6v-54.5l14.8 8.5 1.8 4.3z" fill="url(#aY)"/><path d="m1122.9 906.8 171-98.7-.4-54.3-170.6 98.5z" fill="#5a5a5a"/><path d="m1108.2 843.8 170.9-98.7 14.4 8.7-170.6 98.5z" fill="url(#aZ)"/><path d="m1017.3 806.8c-5.5-3.2-9.9-.7-9.9 5.7s4.4 14 9.9 17.2 9.9.7 9.9-5.7-4.3-14-9.9-17.2z" fill="url(#a0)"/><path d="m990 775.6 171-98.7 14.4 8.7-170.6 98.5z" fill="url(#a1)"/><ellipse cx="1017.3" cy="818.3" fill="#fff" opacity=".5" rx="4.5" ry="7.8" transform="matrix(.8660254 -.5 .5 .8660254 -272.884437 618.293415)"/><path d="m1046.2 825.4v6.4l4.6 5.8 4.6-.5v-6.4l-4.6-5.9z" fill="#ccc"/><path d="m1060.3 833.5v6.4l4.6 5.9 4.6-.5v-6.5l-4.6-5.8z" fill="url(#a2)"/><path d="m1074.9 841.9v6.4l4.6 5.9 4.6-.5v-6.4l-4.6-5.9z" fill="url(#a3)"/><path d="m1089 850.1v6.4l4.6 5.8 4.6-.5v-6.4l-4.6-5.9z" fill="#ccc"/><path d="m1053.4 842.8v6.5l4.6 5.8 4.6-.5v-6.4l-4.6-5.9z" fill="url(#a4)"/><path d="m1067.5 851v6.4l4.6 5.9 4.6-.6v-6.4l-4.6-5.8z" fill="url(#a5)"/><path d="m1081.8 859.3v6.4l4.6 5.8 4.6-.5v-6.4l-4.6-5.9z" fill="url(#a6)"/><path d="m1096.1 867.5v6.4l4.7 5.9 4.6-.5v-6.4l-4.6-5.9z" fill="#ccc"/><path d="m848.6 626.9 171-98.7 99.2 57.7-170.6 98.5z" fill="url(#a7)"/><path d="m848.6 626.9 171-98.7-2.2-4.1-170.6 98.5z" fill="url(#a8)"/><path d="m948.2 684.4 1.9-2.1 14.8 8.5v54.5l-14.8-8.5-1.9-4.3-99.6-57.5-1.8 2.1-14.8-8.5v-54.5l14.8 8.5 1.8 4.3z" fill="#fff"/><path d="m948.2 684.4 1.8-2.1 14.8 8.5v54.5l-14.8-8.5-1.8-4.3-99.6-57.5-1.8 2.1-14.8-8.5v-54.5l14.8 8.5 1.8 4.3z" fill="url(#a9)"/><path d="m964.9 745.3 170.9-98.7-.3-54.3-170.6 98.6z" fill="#5a5a5a"/><path d="m950.1 682.3 170.9-98.7 14.5 8.7-170.6 98.6z" fill="url(#ba)"/><path d="m859.2 645.3c-5.5-3.2-9.9-.7-9.9 5.7s4.4 14 9.9 17.2 9.9.7 9.9-5.7-4.3-14-9.9-17.2z" fill="url(#bb)"/><path d="m832 614.1 170.9-98.7 14.5 8.7-170.6 98.6z" fill="url(#bc)"/><ellipse cx="859.2" cy="656.8" fill="#fff" opacity=".5" rx="4.5" ry="7.8" transform="matrix(.8660254 -.5 .5 .8660254 -213.316328 517.628625)"/><path d="m888.1 663.9v6.4l4.7 5.9 4.6-.6v-6.4l-4.6-5.8z" fill="#ccc"/><path d="m902.2 672v6.4l4.7 5.9 4.6-.5v-6.4l-4.6-5.9z" fill="url(#bd)"/><path d="m916.8 680.4v6.4l4.6 5.9 4.6-.5v-6.4l-4.6-5.9z" fill="url(#be)"/><path d="m930.9 688.6v6.4l4.6 5.9 4.7-.6v-6.4l-4.7-5.9z" fill="#ccc"/><path d="m895.3 681.4v6.4l4.6 5.9 4.7-.6v-6.4l-4.7-5.9z" fill="url(#bf)"/><path d="m909.4 689.5v6.4l4.6 5.9 4.7-.5v-6.4l-4.7-5.9z" fill="url(#bg)"/><path d="m923.7 697.8v6.4l4.7 5.9 4.6-.6v-6.4l-4.6-5.8z" fill="url(#bh)"/><path d="m938.1 706.1v6.4l4.6 5.8 4.6-.5v-6.4l-4.6-5.9z" fill="#ccc"/><path d="m1006.7 718.2 170.9-98.7 99.3 57.7-170.6 98.5z" fill="url(#bi)"/><path d="m1006.7 718.2 170.9-98.7-2.2-4.1-170.6 98.5z" fill="url(#bj)"/><path d="m1106.3 775.7 1.9-2.1 14.7 8.5v54.5l-14.7-8.6-1.9-4.3-99.6-57.5-1.9 2.2-14.8-8.6v-54.4l14.8 8.5 1.9 4.3z" fill="#fff"/><path d="m1106.3 775.7 1.8-2.1 14.8 8.5v54.5l-14.8-8.5-1.8-4.3-99.6-57.5-1.8 2.1-14.8-8.5v-54.5l14.8 8.5 1.8 4.3z" fill="url(#bk)"/><path d="m1122.9 836.6 171-98.8-.4-54.2-170.6 98.5z" fill="#5a5a5a"/><path d="m1108.2 773.6 170.9-98.8 14.4 8.8-170.6 98.5z" fill="url(#bl)"/><path d="m1017.3 736.6c-5.5-3.2-9.9-.7-9.9 5.7s4.4 14 9.9 17.2 9.9.7 9.9-5.7-4.3-14-9.9-17.2z" fill="url(#bm)"/><path d="m990 705.4 171-98.7 14.4 8.7-170.6 98.5z" fill="url(#bn)"/><ellipse cx="1017.3" cy="748.1" fill="#fff" opacity=".5" rx="4.5" ry="7.8" transform="matrix(.8660254 -.5 .5 .8660254 -237.77267 608.886317)"/><path d="m1046.2 755.1v6.5l4.6 5.8 4.6-.5v-6.4l-4.6-5.9z" fill="#ccc"/><path d="m1060.3 763.3v6.4l4.6 5.9 4.6-.6v-6.4l-4.6-5.8z" fill="url(#bo)"/><path d="m1074.9 771.7v6.4l4.6 5.9 4.6-.6v-6.4l-4.6-5.8z" fill="url(#bp)"/><path d="m1089 779.8v6.4l4.6 5.9 4.6-.5v-6.4l-4.6-5.9z" fill="#ccc"/><path d="m1053.4 772.6v6.4l4.6 5.9 4.6-.5v-6.4l-4.6-5.9z" fill="url(#bq)"/><path d="m1067.5 780.8v6.4l4.6 5.8 4.6-.5v-6.4l-4.6-5.9zm14.3 8.2v6.5l4.6 5.8 4.6-.5v-6.4l-4.6-5.9z" fill="#ccc"/><path d="m1096.1 797.3v6.4l4.7 5.9 4.6-.5v-6.4l-4.6-5.9z" fill="url(#br)"/><path d="m848.6 556.7 171-98.7 99.2 57.7-170.6 98.5z" fill="url(#bs)"/><path d="m848.6 556.7 171-98.7-2.2-4.1-170.6 98.5z" fill="url(#bt)"/><path d="m948.2 614.2 1.9-2.1 14.8 8.5v54.5l-14.8-8.6-1.9-4.2-99.6-57.6-1.8 2.2-14.8-8.6v-54.4l14.8 8.5 1.8 4.3z" fill="#fff"/><path d="m948.2 614.2 1.8-2.1 14.8 8.5v54.5l-14.8-8.5-1.8-4.3-99.6-57.5-1.8 2.1-14.8-8.5v-54.5l14.8 8.5 1.8 4.3z" fill="url(#bu)"/><path d="m964.9 675.1 170.9-98.7-.3-54.3-170.6 98.5z" fill="#5a5a5a"/><path d="m950.1 612.1 170.9-98.7 14.5 8.7-170.6 98.5z" fill="url(#bv)"/><path d="m859.2 575.1c-5.5-3.2-9.9-.7-9.9 5.7s4.4 14 9.9 17.2 9.9.7 9.9-5.7-4.3-14-9.9-17.2z" fill="url(#bw)"/><path d="m832 543.9 170.9-98.7 14.5 8.7-170.6 98.5z" fill="url(#bx)"/><ellipse cx="859.2" cy="586.6" fill="#fff" opacity=".5" rx="4.5" ry="7.8" transform="matrix(.8660254 -.5 .5 .8660254 -178.20456 508.221527)"/><path d="m888.1 593.7v6.4l4.7 5.8 4.6-.5v-6.4l-4.6-5.9z" fill="#ccc"/><path d="m902.2 601.8v6.4l4.7 5.9 4.6-.5v-6.5l-4.6-5.8z" fill="url(#by)"/><path d="m916.8 610.2v6.4l4.6 5.9 4.6-.5v-6.4l-4.6-5.9z" fill="url(#bz)"/><path d="m930.9 618.4v6.4l4.6 5.8 4.7-.5v-6.4l-4.7-5.9z" fill="url(#bA)"/><path d="m895.3 611.2v6.4l4.6 5.8 4.7-.5v-6.4l-4.7-5.9z" fill="url(#bB)"/><path d="m909.4 619.3v6.4l4.6 5.9 4.7-.6v-6.4l-4.7-5.8z" fill="#ccc"/><path d="m923.7 627.6v6.4l4.7 5.8 4.6-.5v-6.4l-4.6-5.9z" fill="url(#bC)"/><path d="m938.1 635.8v6.4l4.6 5.9 4.6-.5v-6.4l-4.6-5.9z" fill="#ccc"/><path d="m1006.7 648 170.9-98.8 99.3 57.8-170.6 98.5z" fill="url(#bD)"/><path d="m1006.7 648 170.9-98.8-2.2-4-170.6 98.5z" fill="url(#bE)"/><path d="m1106.3 705.5 1.9-2.2 14.7 8.6v54.4l-14.7-8.5-1.9-4.3-99.6-57.5-1.9 2.1-14.8-8.5v-54.5l14.8 8.6 1.9 4.3z" fill="#fff"/><path d="m1106.3 705.5 1.8-2.1 14.8 8.5v54.5l-14.8-8.5-1.8-4.3-99.6-57.5-1.8 2.1-14.8-8.5v-54.5l14.8 8.5 1.8 4.3z" fill="url(#bF)"/><path d="m1122.9 766.3 171-98.7-.4-54.2-170.6 98.5z" fill="#5a5a5a"/><path d="m1108.2 703.3 170.9-98.7 14.4 8.8-170.6 98.5z" fill="url(#bG)"/><path d="m1017.3 666.4c-5.5-3.2-9.9-.7-9.9 5.7s4.4 14 9.9 17.2 9.9.7 9.9-5.7-4.3-14-9.9-17.2z" fill="url(#bH)"/><path d="m990 635.1 171-98.7 14.4 8.8-170.6 98.5z" fill="url(#bI)"/><ellipse cx="1017.3" cy="677.9" fill="#fff" opacity=".5" rx="4.5" ry="7.8" transform="matrix(.8660254 -.5 .5 .8660254 -202.660768 599.479719)"/><path d="m1046.2 684.9v6.4l4.6 5.9 4.6-.5v-6.4l-4.6-5.9z" fill="#ccc"/><path d="m1060.3 693.1v6.4l4.6 5.8 4.6-.5v-6.4l-4.6-5.9z" fill="url(#bJ)"/><path d="m1074.9 701.5v6.4l4.6 5.9 4.6-.6v-6.4l-4.6-5.9z" fill="url(#bK)"/><path d="m1089 709.6v6.4l4.6 5.9 4.6-.5v-6.4l-4.6-5.9z" fill="#ccc"/><path d="m1053.4 702.4v6.4l4.6 5.9 4.6-.5v-6.5l-4.6-5.8z" fill="url(#bL)"/><path d="m1067.5 710.5v6.5l4.6 5.8 4.6-.5v-6.4l-4.6-5.9z" fill="url(#bM)"/><path d="m1081.8 718.8v6.4l4.6 5.9 4.6-.5v-6.4l-4.6-5.9zm14.3 8.3v6.4l4.7 5.9 4.6-.6v-6.4l-4.6-5.8z" fill="#ccc"/><path d="m848.6 486.5 171-98.7 99.2 57.7-170.6 98.5z" fill="url(#bN)"/><path d="m848.6 486.5 171-98.7-2.2-4.1-170.6 98.5z" fill="url(#bO)"/><path d="m948.2 544 1.9-2.1 14.8 8.5v54.5l-14.8-8.6-1.9-4.3-99.6-57.5-1.8 2.2-14.8-8.6v-54.4l14.8 8.5 1.8 4.3z" fill="#fff"/><path d="m948.2 544 1.8-2.1 14.8 8.5v54.5l-14.8-8.5-1.8-4.3-99.6-57.5-1.8 2.1-14.8-8.5v-54.5l14.8 8.5 1.8 4.3z" fill="url(#bP)"/><path d="m964.9 604.9 170.9-98.8-.3-54.2-170.6 98.5z" fill="#5a5a5a"/><path d="m950.1 541.9 170.9-98.7 14.5 8.7-170.6 98.5z" fill="url(#bQ)"/><path d="m859.2 504.9c-5.5-3.2-9.9-.7-9.9 5.7s4.4 14 9.9 17.2 9.9.7 9.9-5.7-4.3-14-9.9-17.2z" fill="url(#bR)"/><path d="m832 473.7 170.9-98.7 14.5 8.7-170.6 98.5z" fill="url(#bS)"/><ellipse cx="859.2" cy="516.4" fill="#fff" opacity=".5" rx="4.5" ry="7.8" transform="matrix(.8660254 -.5 .5 .8660254 -143.092792 498.814429)"/><path d="m888.1 523.4v6.5l4.7 5.8 4.6-.5v-6.4l-4.6-5.9z" fill="#ccc"/><path d="m902.2 531.6v6.4l4.7 5.9 4.6-.6v-6.4l-4.6-5.8z" fill="url(#bT)"/><path d="m916.8 540v6.4l4.6 5.9 4.6-.6v-6.4l-4.6-5.8z" fill="url(#bU)"/><path d="m930.9 548.1v6.4l4.6 5.9 4.7-.5v-6.4l-4.7-5.9z" fill="url(#bV)"/><path d="m895.3 540.9v6.4l4.6 5.9 4.7-.5v-6.4l-4.7-5.9z" fill="#ccc"/><path d="m909.4 549.1v6.4l4.6 5.9 4.7-.6v-6.4l-4.7-5.9z" fill="url(#bW)"/><path d="m923.7 557.3v6.5l4.7 5.8 4.6-.5v-6.4l-4.6-5.9zm14.4 8.3v6.4l4.6 5.9 4.6-.5v-6.4l-4.6-5.9z" fill="#ccc"/><path d="m1006.7 577.7 170.9-98.7 99.3 57.7-170.6 98.6z" fill="url(#bX)"/><path d="m1006.7 577.7 170.9-98.7-2.2-4-170.6 98.5z" fill="url(#bY)"/><path d="m1106.3 635.3 1.9-2.2 14.7 8.6v54.4l-14.7-8.5-1.9-4.3-99.6-57.5-1.9 2.1-14.8-8.5v-54.5l14.8 8.6 1.9 4.2z" fill="#fff"/><path d="m1106.3 635.3 1.8-2.1 14.8 8.5v54.5l-14.8-8.5-1.8-4.3-99.6-57.5-1.8 2.1-14.8-8.5v-54.5l14.8 8.5 1.8 4.3z" fill="url(#bZ)"/><path d="m1122.9 696.1 171-98.7-.4-54.2-170.6 98.5z" fill="#5a5a5a"/><path d="m1108.2 633.1 170.9-98.7 14.4 8.8-170.6 98.5z" fill="url(#b0)"/><path d="m1017.3 596.2c-5.5-3.2-9.9-.7-9.9 5.7s4.4 14 9.9 17.2 9.9.7 9.9-5.7-4.3-14-9.9-17.2z" fill="url(#b1)"/><path d="m990 564.9 171-98.7 14.4 8.8-170.6 98.5z" fill="url(#b2)"/><ellipse cx="1017.3" cy="607.6" fill="#fff" opacity=".5" rx="4.5" ry="7.8" transform="matrix(.8660254 -.5 .5 .8660254 -167.549 590.07262)"/><path d="m1046.2 614.7v6.4l4.6 5.9 4.6-.6v-6.4l-4.6-5.8z" fill="#ccc"/><path d="m1060.3 622.8v6.5l4.6 5.8 4.6-.5v-6.4l-4.6-5.9z" fill="url(#b3)"/><path d="m1074.9 631.3v6.4l4.6 5.8 4.6-.5v-6.4l-4.6-5.9z" fill="url(#b4)"/><path d="m1089 639.4v6.4l4.6 5.9 4.6-.6v-6.4l-4.6-5.8z" fill="#ccc"/><path d="m1053.4 632.2v6.4l4.6 5.9 4.6-.6v-6.4l-4.6-5.8z" fill="url(#b5)"/><path d="m1067.5 640.3v6.4l4.6 5.9 4.6-.5v-6.4l-4.6-5.9z" fill="url(#b6)"/><path d="m1081.8 648.6v6.4l4.6 5.9 4.6-.6v-6.4l-4.6-5.8z" fill="url(#b7)"/><path d="m1096.1 656.9v6.4l4.7 5.9 4.6-.6v-6.4l-4.6-5.9z" fill="#ccc"/><path d="m848.6 416.3 171-98.8 99.2 57.8-170.6 98.5z" fill="url(#b8)"/><path d="m848.6 416.3 171-98.8-2.2-4-170.6 98.5z" fill="url(#b9)"/><path d="m948.2 473.8 1.9-2.2 14.8 8.6v54.4l-14.8-8.5-1.9-4.3-99.6-57.5-1.8 2.1-14.8-8.5v-54.5l14.8 8.6 1.8 4.3z" fill="#fff"/><path d="m948.2 473.8 1.8-2.1 14.8 8.5v54.5l-14.8-8.5-1.8-4.3-99.6-57.5-1.8 2.1-14.8-8.5v-54.5l14.8 8.5 1.8 4.3z" fill="url(#ca)"/><path d="m964.9 534.6 170.9-98.7-.3-54.2-170.6 98.5z" fill="#5a5a5a"/><path d="m950.1 471.6 170.9-98.7 14.5 8.8-170.6 98.5z" fill="url(#cb)"/><path d="m859.2 434.7c-5.5-3.2-9.9-.7-9.9 5.7s4.4 14 9.9 17.2 9.9.7 9.9-5.7c.1-6.4-4.3-14-9.9-17.2z" fill="url(#cc)"/><path d="m832 403.4 170.9-98.7 14.5 8.8-170.6 98.5z" fill="url(#cd)"/><ellipse cx="859.2" cy="446.2" fill="#fff" opacity=".5" rx="4.5" ry="7.8" transform="matrix(.8660254 -.5 .5 .8660254 -107.98039 489.407697)"/><path d="m888.1 453.2v6.4l4.7 5.9 4.6-.5v-6.4l-4.6-5.9z" fill="#ccc"/><path d="m902.2 461.4v6.4l4.7 5.8 4.6-.5v-6.4l-4.6-5.9z" fill="url(#ce)"/><path d="m916.8 469.8v6.4l4.6 5.9 4.6-.6v-6.4l-4.6-5.9z" fill="url(#cf)"/><path d="m930.9 477.9v6.4l4.6 5.9 4.7-.5v-6.4l-4.7-5.9zm-35.6-7.2v6.4l4.6 5.9 4.7-.5v-6.5l-4.7-5.8z" fill="#ccc"/><path d="m909.4 478.9v6.4l4.6 5.8 4.7-.5v-6.4l-4.7-5.9z" fill="url(#cg)"/><path d="m923.7 487.1v6.4l4.7 5.9 4.6-.5v-6.4l-4.6-5.9z" fill="#ccc"/><path d="m938.1 495.4v6.4l4.6 5.9 4.6-.6v-6.4l-4.6-5.8z" fill="url(#ch)"/><path d="m848.6 346 171-98.7 99.2 57.8-170.6 98.5z" fill="url(#ci)"/><path d="m848.6 346 171-98.7-2.2-4-170.6 98.5z" fill="url(#cj)"/><path d="m948.2 403.6 1.9-2.2 14.8 8.6v54.4l-14.8-8.5-1.9-4.3-99.6-57.5-1.8 2.1-14.8-8.5v-54.5l14.8 8.6 1.8 4.2z" fill="#fff"/><path d="m948.2 403.6 1.8-2.1 14.8 8.5v54.5l-14.8-8.5-1.8-4.3-99.6-57.5-1.8 2.1-14.8-8.5v-54.5l14.8 8.5 1.8 4.3z" fill="url(#ck)"/><path d="m964.9 464.4 170.9-98.7-.3-54.2-170.6 98.5z" fill="#5a5a5a"/><path d="m950.1 401.4 170.9-98.7 14.5 8.8-170.6 98.5z" fill="url(#cl)"/><path d="m859.2 364.5c-5.5-3.2-9.9-.7-9.9 5.7s4.4 14 9.9 17.2 9.9.7 9.9-5.7c.1-6.4-4.3-14-9.9-17.2z" fill="url(#cm)"/><path d="m832 333.2 170.9-98.7 14.5 8.8-170.6 98.5z" fill="url(#cn)"/><ellipse cx="859.2" cy="375.9" fill="#fff" opacity=".5" rx="4.5" ry="7.8" transform="matrix(.8660254 -.5 .5 .8660254 -72.868488 480.001099)"/><path d="m888.1 383v6.4l4.7 5.9 4.6-.5v-6.5l-4.6-5.8z" fill="#ccc"/><path d="m902.2 391.1v6.5l4.7 5.8 4.6-.5v-6.4l-4.6-5.9z" fill="url(#co)"/><path d="m916.8 399.6v6.4l4.6 5.8 4.6-.5v-6.4l-4.6-5.9zm14.1 8.1v6.4l4.6 5.9 4.7-.6v-6.4l-4.7-5.8z" fill="#ccc"/><path d="m895.3 400.5v6.4l4.6 5.9 4.7-.6v-6.4l-4.7-5.8z" fill="url(#cp)"/><path d="m909.4 408.6v6.4l4.6 5.9 4.7-.5v-6.4l-4.7-5.9zm14.3 8.3v6.4l4.7 5.9 4.6-.5v-6.5l-4.6-5.8zm14.4 8.3v6.4l4.6 5.9 4.6-.6v-6.4l-4.6-5.9z" fill="#ccc"/><path d="m1006.7 507.5 170.9-98.7 99.3 57.7-170.6 98.5z" fill="url(#cq)"/><path d="m1006.7 507.5 170.9-98.7-2.2-4.1-170.6 98.5z" fill="url(#cr)"/><path d="m1106.3 565 1.9-2.1 14.7 8.5v54.5l-14.7-8.5-1.9-4.3-99.6-57.5-1.9 2.1-14.8-8.5v-54.5l14.8 8.5 1.9 4.3z" fill="#fff"/><path d="m1106.3 565 1.8-2.1 14.8 8.5v54.5l-14.8-8.5-1.8-4.3-99.6-57.5-1.8 2.1-14.8-8.5v-54.5l14.8 8.5 1.8 4.3z" fill="url(#cs)"/><path d="m1122.9 625.9 171-98.7-.4-54.3-170.6 98.5z" fill="#5a5a5a"/><path d="m1108.2 562.9 170.9-98.7 14.4 8.7-170.6 98.5z" fill="url(#ct)"/><path d="m1017.3 525.9c-5.5-3.2-9.9-.7-9.9 5.7s4.4 14 9.9 17.2 9.9.7 9.9-5.7-4.3-14-9.9-17.2z" fill="url(#cu)"/><path d="m990 494.7 171-98.7 14.4 8.7-170.6 98.5z" fill="url(#cv)"/><ellipse cx="1017.3" cy="537.4" fill="#fff" opacity=".5" rx="4.5" ry="7.8" transform="matrix(.8660254 -.5 .5 .8660254 -132.436598 580.665888)"/><path d="m1046.2 544.5v6.4l4.6 5.9 4.6-.6v-6.4l-4.6-5.9z" fill="#ccc"/><path d="m1060.3 552.6v6.4l4.6 5.9 4.6-.5v-6.4l-4.6-5.9z" fill="url(#cw)"/><path d="m1074.9 561v6.4l4.6 5.9 4.6-.5v-6.4l-4.6-5.9zm14.1 8.2v6.4l4.6 5.9 4.6-.6v-6.4l-4.6-5.9z" fill="#ccc"/><path d="m1053.4 562v6.4l4.6 5.8 4.6-.5v-6.4l-4.6-5.9z" fill="url(#cx)"/><path d="m1067.5 570.1v6.4l4.6 5.9 4.6-.5v-6.5l-4.6-5.8z" fill="url(#cy)"/><path d="m1081.8 578.4v6.4l4.6 5.9 4.6-.6v-6.4l-4.6-5.9z" fill="url(#cz)"/><path d="m1096.1 586.7v6.4l4.7 5.8 4.6-.5v-6.4l-4.6-5.9z" fill="url(#cA)"/><g opacity=".1"><path d="m453.4 504.9 346.7 200.1v-473.8l-346.7-200.2z" fill="#f2f2f2"/><path d="m453.4 31 344.6 199v25.7l-344.6-198.9z" fill="#e6e6e6"/><path d="m455.6 85.2 342.4 197.7v-2.9l-342.4-197.7z" fill="url(#cC)" opacity=".3"/><path d="m455.6 58 342.4 197.7v25.8l-342.4-197.7z" fill="#fff"/><path d="m781.4 267 1.9 1.1c3.4 2 6.2-.1 6.2-4.7 0-4.5-2.8-9.8-6.2-11.8l-1.9-1.1c-3.4-2-6.2.1-6.2 4.7 0 4.5 2.8 9.8 6.2 11.8zm-22.8-13.2 1.9 1.1c3.4 2 6.2-.1 6.2-4.7 0-4.5-2.8-9.8-6.2-11.8l-1.9-1.1c-3.4-2-6.2.1-6.2 4.7 0 4.5 2.8 9.9 6.2 11.8z" fill="#888"/><path d="m800.1 205.5-346.7-200.2v499.6l346.7 200.1zm-2.1 495.8-342.4-197.7v-471.3l342.4 197.7z"/><path d="m732.7 179.9-13-7.5c-.2-.1-.4-.5-.4-.7s.2-.4.4-.2l13 7.5c.2.1.4.5.4.7s-.2.3-.4.2zm52.9 30 4.3-2.5c.2-.1.2-.4 0-.7s-.4-.4-.6-.3l-4.3 2.5-4.3-7.4c-.2-.3-.4-.4-.6-.3s-.2.4 0 .7l4.3 7.4-4.3 2.5c-.2.1-.2.4 0 .7.1.1.2.3.3.3.1.1.2.1.3 0l4.3-2.5 4.3 7.4c.1.1.2.3.3.3.1.1.2.1.3 0 .2-.1.2-.4 0-.7zm-24.1-8.1-10-5.8v-11.6l10 5.8zm-9.1-6.2 8.3 4.8v-9.6l-8.3-4.8z" fill="#fff"/><path d="m807.6 700.7-7.5 4.3v-499.5l7.5-4.3z" fill="#1a1a1a"/><path d="m460.8 1-7.4 4.3 346.7 200.2 7.5-4.3z" fill="#4d4d4d"/></g><g opacity=".25"><path d="m423.7 522.2 346.8 200.2v-473.8l-346.8-200.2z" fill="#f2f2f2"/><path d="m423.7 48.4 344.6 199v25.7l-344.6-198.9z" fill="#e6e6e6"/><path d="m425.9 102.6 342.4 197.7v-2.9l-342.4-197.7z" fill="url(#cD)" opacity=".3"/><path d="m425.9 75.4 342.4 197.7v25.8l-342.4-197.7z" fill="#fff"/><path d="m751.7 284.4 1.9 1.1c3.4 2 6.2-.1 6.2-4.7 0-4.5-2.8-9.8-6.2-11.8l-1.9-1.1c-3.4-2-6.2.1-6.2 4.7 0 4.5 2.8 9.8 6.2 11.8zm-22.8-13.2 1.9 1.1c3.4 2 6.2-.1 6.2-4.7 0-4.5-2.8-9.8-6.2-11.8l-1.9-1.1c-3.4-2-6.2.1-6.2 4.7 0 4.5 2.8 9.8 6.2 11.8z" fill="#888"/><path d="m770.5 222.8-346.8-200.1v499.6l346.7 200.2v-499.7zm-2.2 495.9-342.4-197.7v-471.3l342.4 197.7z"/><path d="m703 197.2-13-7.5c-.2-.1-.4-.5-.4-.7s.2-.4.4-.2l13 7.5c.2.1.4.5.4.7s-.2.4-.4.2zm52.9 30.1 4.3-2.5c.2-.1.2-.4 0-.7s-.4-.4-.6-.3l-4.3 2.5-4.3-7.4c-.2-.3-.4-.4-.6-.3s-.2.4 0 .7l4.3 7.4-4.3 2.5c-.2.1-.2.4 0 .7.1.1.2.3.3.3.1.1.2.1.3 0l4.3-2.5 4.3 7.4c.1.1.2.3.3.3.1.1.2.1.3 0 .2-.1.2-.4 0-.7zm-24-8.1-10-5.8v-11.6l10 5.8zm-9.2-6.3 8.3 4.8v-9.6l-8.3-4.8z" fill="#fff"/><path d="m777.9 718.1-7.4 4.3v-499.6l7.4-4.2z" fill="#1a1a1a"/><path d="m431.1 18.4-7.4 4.3 346.8 200.1 7.4-4.2z" fill="#4d4d4d"/></g><g opacity=".4"><path d="m394 539.6 346.8 200.2v-473.8l-346.8-200.2z" fill="#f2f2f2"/><path d="m394 65.8 344.6 198.9v25.8l-344.6-198.9z" fill="#e6e6e6"/><path d="m396.2 120 342.4 197.7v-2.9l-342.4-197.7z" fill="url(#cE)" opacity=".3"/><path d="m396.2 92.8 342.4 197.7v25.7l-342.4-197.7z" fill="#fff"/><path d="m722 301.7 1.9 1.1c3.4 2 6.2-.1 6.2-4.7 0-4.5-2.8-9.8-6.2-11.8l-1.9-1.1c-3.4-2-6.2.1-6.2 4.7s2.8 9.9 6.2 11.8zm-22.8-13.1 1.9 1.1c3.4 2 6.2-.1 6.2-4.7 0-4.5-2.8-9.8-6.2-11.8l-1.9-1.1c-3.4-2-6.2.1-6.2 4.7 0 4.5 2.8 9.8 6.2 11.8z" fill="#888"/><path d="m740.8 240.2-346.8-200.1v499.6l346.7 200.2v-499.7zm-2.2 495.9-342.4-197.7v-471.4l342.4 197.7z"/><path d="m673.3 214.6-13-7.5c-.2-.1-.4-.5-.4-.7 0-.3.2-.4.4-.2l13 7.5c.2.1.4.5.4.7 0 .3-.2.4-.4.2zm52.9 30.1 4.3-2.5c.2-.1.2-.4 0-.7s-.4-.4-.6-.3l-4.3 2.5-4.3-7.4c-.2-.3-.4-.4-.6-.3s-.2.4 0 .7l4.3 7.4-4.3 2.5c-.2.1-.2.4 0 .7.1.1.2.3.3.3.1.1.2.1.3 0l4.3-2.5 4.3 7.4c.1.1.2.3.3.3.1.1.2.1.3 0 .2-.1.2-.4 0-.7zm-24-8.1-10-5.8v-11.6l10 5.8zm-9.2-6.3 8.3 4.8v-9.6l-8.3-4.8z" fill="#fff"/><path d="m748.2 735.5-7.4 4.3v-499.6l7.4-4.3z" fill="#1a1a1a"/><path d="m401.5 35.8-7.5 4.3 346.8 200.1 7.4-4.3z" fill="#4d4d4d"/></g><path d="m367.4 555.2 346.7 200.2v-473.8l-346.7-200.2z" fill="#f2f2f2"/><path d="m367.4 81.4 344.6 199v25.7l-344.6-198.9z" fill="#e6e6e6"/><path d="m421.1 369.2c-.5-.3-.9-1-.9-1.6v-58.2c0-.6.4-.8.9-.5l54.6 31.5c.5.3.9 1 .9 1.6v58.2c0 .6-.4.8-.9.5z" fill="#fff"/><path d="m476.9 342.3c0-.8-.6-1.7-1.2-2.1l-54.6-31.5c-.7-.4-1.2-.1-1.2.7v58.2c0 .8.6 1.7 1.2 2.1l54.6 31.5c.7.4 1.2.1 1.2-.7zm-.6 57.8c0 .4-.3.6-.6.4l-54.6-31.5c-.3-.2-.6-.7-.6-1.1v-19.1l55.8 32.2z" fill="#d50c2d"/><path d="m458.2 376.7-19.8-11.4c-1.9-1.1-3.5-.2-3.5 2s1.6 5 3.5 6.1l19.8 11.4c1.9 1.1 3.5.2 3.5-2 .1-2.2-1.5-5-3.5-6.1z" fill="#ccc"/><path d="m437.4 335.8c-1.2-.7-2.2-.1-2.2 1.3s1 3.1 2.2 3.8 2.2.1 2.2-1.3c0-1.5-1-3.1-2.2-3.8zm15.6 20.4c-1.1.1-1.4 1.4-.8 3s1.9 2.7 3 2.6 1.4-1.4.8-3c-.6-1.5-1.9-2.7-3-2.6zm-10.8-15.2c0-2.5 1.1-4.1 2.7-4.5l-1.6-4c-1.9.4-3.3 1.8-3.9 4.1.7 1.1 1.1 2.3 1.1 3.4s-.4 1.8-1.1 2.1c.6 3 2 6.1 3.9 8.6l1.6-2.2c-1.7-2.2-2.7-5-2.7-7.5zm6.3-3.7c3.3 1.9 6.1 6.5 6.4 10.4l3.1 1.7c-.2-2.9-1.2-6-2.8-8.7-.8-.1-1.8-.7-2.6-1.8s-1.4-2.3-1.5-3.4c-.8-.7-1.7-1.4-2.5-1.9-1.5-.9-2.9-1.3-4.2-1.3l1.5 4c.8.2 1.7.5 2.6 1zm0 14.8c-1-.6-1.9-1.3-2.7-2.2l-1.5 2.3c1.3 1.5 2.7 2.7 4.2 3.6.9.5 1.7.9 2.5 1.1.2-.9.7-1.6 1.5-1.6.8-.1 1.8.4 2.6 1.3 1.6-.9 2.7-2.8 2.8-5.5l-3.1-1.9c-.2 3.4-2.9 4.8-6.3 2.9zm4.5-13.8c1.1 1.3 2.4 1.7 3 .8s.3-2.6-.8-3.9-2.4-1.6-3-.8c-.6.9-.2 2.6.8 3.9zm107.2 111.3c-.5-.3-.9-1-.9-1.6v-58.2c0-.6.4-.8.9-.5l54.6 31.5c.5.3.9 1 .9 1.6v58.2c0 .6-.4.8-.9.5z" fill="#fff"/><path d="m597.4 457.1-19.8-11.4c-1.9-1.1-3.5-.2-3.5 2s1.6 5 3.5 6.1l19.8 11.4c1.9 1.1 3.5.2 3.5-2 .1-2.3-1.5-5-3.5-6.1zm18.4 4-56.5-32.6v.7l56.5 32.6z" fill="#ccc"/><path d="m594.2 434.7-4-7 5.7 3.3v2.7zm-5.6.5 2.4 1.4 1.7-1-4-7v6.6zm0-7.4 4.8 8.3-1.7 1 4.2 2.4v-4.8l-1.7 1-4.8-8.3-.8-.5zm-9.4-12.5 1.7-1 4.8 8.3.8.5v-.9l-4.8-8.3 1.7-1-4.2-2.4zm7.2-.6-2.4-1.4-1.7 1 4 7v-6.6zm-7.2 4.2 5.7 3.3-4-7-1.7 1zm9.4 5.4.8.5 4.8-2.8 1.7 2.9v-4.8l-4.2-2.4 1.7 2.9-4.8 2.8zm7.3 4.2v-2.7l-1.7-2.9-4 2.3zm-7.3-12.6v6.6l4-2.3-1.7-2.9zm-2.2 9.7-.8-.5-4.8 2.8-1.7-2.9v4.8l4.2 2.4-1.7-2.9 4.8-2.8zm0 8.4v-6.6l-4 2.3 1.7 2.9zm-5.6-7 4-2.3-5.7-3.3v2.7zm3.8-14 2.4 1.4v7.8l.6 1 .6-.3v-7.9l2.4 1.4-2.9-5.1zm-8.9 5.1 2.9 5.1v-2.7l6.8 3.9.6-.3-.6-1-6.8-3.9v-2.7zm14.8 18.8-2.4-1.4v-7.8l-.6-1-.6.3v7.8l-2.4-1.4 2.9 5.1zm8.9-5.1-2.9-5.1v2.7l-6.8-3.9-.6.3.6 1 6.8 3.9v2.7z" fill="#5a5a5a"/><path d="m427.1 127.6c.4-.4 1-.3 1.7.1 1.2.7 1.8 1.8 1.8 3.4v4.3l-1-.6v-4.3c0-.5-.1-.9-.3-1.2s-.5-.6-.9-.8c-.3-.2-.6-.2-.8-.2-.2.1-.4.2-.6.4v4.7l-1-.6v-9.3l1 .6v3.5zm6.2 1.2v1.6l1.1.6v.9l-1.1-.6v4.1c0 .3 0 .5.1.7s.3.3.5.5c.1.1.3.1.5.2v.9c-.3-.1-.5-.2-.7-.3-.4-.2-.8-.6-1-1s-.3-.9-.3-1.5v-4l-1-.6v-.9l1 .6v-1.6zm3.5 2v1.6l1.1.6v.9l-1.1-.6v4.1c0 .3 0 .5.1.7s.3.3.5.5c.1.1.3.1.5.2v.9c-.3-.1-.5-.2-.7-.3-.4-.2-.8-.6-1-1s-.3-.9-.3-1.5v-4l-1-.6v-.9l1 .6v-1.6zm7 9c0 1-.2 1.7-.6 2.1s-.9.4-1.6 0-1.2-1-1.6-1.7v3.1l-1-.6v-9l.9.5v.8c.4-.3.9-.3 1.6.1s1.2 1 1.6 1.8.6 1.8.6 2.8v.1zm-1-.7c0-.7-.1-1.4-.4-2s-.6-1-1.1-1.3c-.6-.3-1-.3-1.3.1v3.1c.3.8.7 1.3 1.3 1.7.5.3.8.3 1.1 0 .3-.2.4-.8.4-1.6zm5.5 4.7c0-.3-.1-.6-.3-.9s-.5-.6-1-1-.9-.8-1.2-1.1-.5-.7-.6-1-.2-.6-.2-1c0-.5.2-.9.6-1s.9 0 1.5.3c.6.4 1.2.9 1.6 1.5s.6 1.2.6 1.8l-1-.6c0-.3-.1-.6-.3-1s-.5-.6-.8-.8c-.4-.2-.6-.3-.8-.2s-.3.2-.3.5.1.5.3.8c.2.2.5.6 1 1s.9.8 1.2 1.1.5.7.7 1c.1.3.2.7.2 1 0 .6-.2.9-.6 1.1-.4.1-.9 0-1.6-.4-.5-.3-.9-.6-1.2-1s-.6-.8-.8-1.2-.3-.9-.3-1.2l1 .6c0 .4.1.8.4 1.1.2.4.6.7 1 .9s.7.3.9.3c-.1-.1 0-.3 0-.6zm2.2 2.5c0-.2 0-.3.1-.4s.2 0 .4.1.3.3.5.5c.1.2.2.4.2.6s-.1.3-.2.4-.3 0-.5-.1-.3-.3-.4-.4c-.1-.4-.1-.6-.1-.7zm0-5.4c0-.2 0-.3.1-.4s.2 0 .4.1.3.3.5.5c.1.2.2.4.2.6s-.1.3-.2.4-.3 0-.5-.1-.3-.3-.4-.4c-.1-.3-.1-.5-.1-.7z" fill="#39b54a"/><path d="m453.3 149.2-.8-.5 3.2-7.7.8.5zm3.2 1.9-.8-.5 3.2-7.7.8.5zm6.5 2.2c.3.2.6.3.9.2s.4-.3.4-.7l.9.5c0 .4-.1.7-.3.9s-.5.3-.8.3-.7-.1-1.1-.3c-.8-.4-1.4-1.1-1.8-2-.5-.9-.7-1.8-.7-2.8v-.2c0-.6.1-1.1.3-1.5s.5-.6.9-.7.8.1 1.3.4c.6.4 1.2.9 1.6 1.6s.6 1.4.7 2.1l-.9-.5c0-.4-.2-.9-.4-1.3s-.6-.7-.9-.9c-.5-.3-.9-.3-1.1 0-.3.3-.4.8-.4 1.5v.2c0 .8.1 1.4.4 2 .1.5.5.9 1 1.2zm3.1-.8c0-.6.1-1.2.3-1.5.2-.4.5-.6.9-.7s.8.1 1.3.4c.8.4 1.4 1.1 1.9 2s.7 1.8.7 2.9v.1c0 .6-.1 1.1-.3 1.5s-.5.6-.9.7-.8-.1-1.4-.4c-.8-.4-1.4-1.1-1.9-2-.4-.9-.6-1.9-.6-3zm1 .7c0 .7.1 1.4.4 2s.7 1.1 1.2 1.3c.5.3.9.3 1.2 0s.4-.8.4-1.6c0-.7-.1-1.4-.4-2s-.7-1.1-1.2-1.3c-.5-.3-.9-.3-1.2 0s-.4.8-.4 1.6zm6.3.3v.8c.4-.4 1-.4 1.7 0 1.2.7 1.8 1.8 1.8 3.4v4.3l-1-.6v-4.3c0-.5-.1-.9-.3-1.2s-.5-.6-.9-.8c-.3-.2-.6-.2-.8-.2-.2.1-.4.2-.6.4v4.7l-1-.6v-6.4zm8.3 9.6c0-.3-.1-.6-.3-.9s-.5-.6-1-1-.9-.8-1.2-1.1-.5-.7-.6-1-.2-.6-.2-1c0-.5.2-.9.6-1s.9 0 1.5.3c.6.4 1.2.9 1.6 1.5s.6 1.2.6 1.8l-1-.6c0-.3-.1-.6-.3-1s-.5-.6-.8-.8c-.4-.2-.6-.3-.8-.2s-.3.2-.3.5.1.5.3.8c.2.2.5.6 1 1s.9.8 1.2 1.1.5.7.7 1c.1.3.2.7.2 1 0 .6-.2.9-.6 1.1-.4.1-.9 0-1.6-.4-.5-.3-.9-.6-1.2-1s-.6-.8-.8-1.2-.3-.9-.3-1.2l1 .6c0 .4.1.8.4 1.1.2.4.6.7 1 .9s.7.3.9.3c-.2-.1 0-.3 0-.6zm1.9-.4c0-.6.1-1.2.3-1.5.2-.4.5-.6.9-.7s.8.1 1.3.4c.8.4 1.4 1.1 1.9 2s.7 1.8.7 2.9v.1c0 .6-.1 1.1-.3 1.5s-.5.6-.9.7-.8-.1-1.4-.4c-.8-.4-1.4-1.1-1.9-2-.3-1-.6-2-.6-3zm1 .6c0 .7.1 1.4.4 2s.7 1.1 1.2 1.3c.5.3.9.3 1.2 0s.4-.8.4-1.6c0-.7-.1-1.4-.4-2s-.7-1.1-1.2-1.3c-.5-.3-.9-.3-1.2 0s-.4.8-.4 1.6zm6.4 7-1-.6v-9.3l1 .6zm3.9 2.3c-.8-.4-1.4-1.1-1.9-2s-.7-1.8-.7-2.7v-.2c0-.6.1-1.2.3-1.5.2-.4.5-.6.9-.7s.8 0 1.3.3c.7.4 1.3 1 1.7 1.8s.6 1.7.6 2.8v.5l-3.8-2.2c0 .7.2 1.3.5 1.8.3.6.7 1 1.2 1.3.3.2.6.3.9.3.2 0 .4-.1.6-.3l.6.9c-.5.5-1.2.5-2.2-.1zm-.1-5.9c-.4-.2-.7-.3-1-.1s-.4.5-.5 1.1l2.8 1.6v-.1c0-.6-.2-1.1-.4-1.5s-.5-.8-.9-1zm3.5 7.1c0-.2 0-.3.1-.4s.2 0 .4.1.3.3.5.5c.1.2.2.4.2.6s-.1.3-.2.4-.3 0-.5-.1-.3-.3-.4-.4c-.1-.3-.1-.5-.1-.7zm3.7-2.9c.4-.4 1-.3 1.7.1 1.2.7 1.8 1.8 1.8 3.4v4.3l-1-.6v-4.3c0-.5-.1-.9-.3-1.2s-.5-.6-.9-.8c-.3-.2-.6-.2-.8-.2-.2.1-.4.2-.6.4v4.7l-1-.6v-9.3l1 .6v3.5zm7.3 10c-.8-.4-1.4-1.1-1.9-2s-.7-1.8-.7-2.7v-.2c0-.6.1-1.2.3-1.5.2-.4.5-.6.9-.7s.8 0 1.3.3c.7.4 1.3 1 1.7 1.8s.6 1.7.6 2.8v.5l-3.8-2.2c0 .7.2 1.3.5 1.8.3.6.7 1 1.2 1.3.3.2.6.3.9.3.2 0 .4-.1.6-.3l.6.9c-.5.5-1.2.5-2.2-.1zm-.1-5.9c-.4-.2-.7-.3-1-.1s-.4.5-.5 1.1l2.8 1.6v-.1c0-.6-.2-1.1-.4-1.5s-.5-.8-.9-1zm4.7.4v1.6l1.1.6v.9l-1.1-.6v4.1c0 .3 0 .5.1.7s.3.3.5.5c.1.1.3.1.5.2v.9c-.3-.1-.5-.2-.7-.3-.4-.2-.8-.6-1-1s-.3-.9-.3-1.5v-4l-1-.6v-.9l1 .6v-1.6zm3.1 9 3.3 1.9v.9l-4.5-2.6v-.8l3.1-3-3.1-1.8v-.9l4.3 2.5v.8zm5.3-2.6v.8c.4-.4 1-.4 1.7 0 1.2.7 1.8 1.8 1.8 3.4v4.3l-1-.6v-4.3c0-.5-.1-.9-.3-1.2s-.5-.6-.9-.8c-.3-.2-.6-.2-.8-.2-.2.1-.4.2-.6.4v4.7l-1-.6v-6.5zm7.4 10.9c-.8-.4-1.4-1.1-1.9-2s-.7-1.8-.7-2.7v-.2c0-.6.1-1.2.3-1.5.2-.4.5-.6.9-.7s.8 0 1.3.3c.7.4 1.3 1 1.7 1.8s.6 1.7.6 2.8v.5l-3.8-2.2c0 .7.2 1.3.5 1.8.3.6.7 1 1.2 1.3.3.2.6.3.9.3.2 0 .4-.1.6-.3l.6.9c-.6.4-1.3.4-2.2-.1zm-.1-5.9c-.4-.2-.7-.3-1-.1s-.4.5-.5 1.1l2.8 1.6v-.1c0-.6-.2-1.1-.4-1.5-.2-.5-.5-.8-.9-1zm6.1 3.7c-.1-.1-.3-.2-.5-.3-.6-.4-1.1-.3-1.3.2v4.6l-1-.6v-6.4l.9.5v.8c.3-.4.8-.4 1.3-.1.2.1.3.2.4.3v1zm.3 5.1c0-.2 0-.3.1-.4s.2 0 .4.1.3.3.5.5c.1.2.2.4.2.6s-.1.3-.2.4-.3 0-.5-.1-.3-.3-.4-.4c0-.3-.1-.5-.1-.7zm5.1 2.7c.3.2.6.3.9.2s.4-.3.4-.7l.9.5c0 .4-.1.7-.3.9s-.5.3-.8.3-.7-.1-1.1-.3c-.8-.4-1.4-1.1-1.8-2-.5-.9-.7-1.8-.7-2.8v-.2c0-.6.1-1.1.3-1.5s.5-.6.9-.7.8.1 1.3.4c.6.4 1.2.9 1.6 1.6s.6 1.4.7 2.1l-.9-.5c0-.4-.2-.9-.4-1.3s-.6-.7-.9-.9c-.5-.3-.9-.3-1.1 0-.3.3-.4.8-.4 1.5v.2c0 .8.1 1.4.4 2 .1.5.5 1 1 1.2zm4.4 3.4-1-.6v-9.3l1 .6zm1.2-2.6c0-.6.1-1.2.3-1.5.2-.4.5-.6.9-.7s.8.1 1.3.4c.8.4 1.4 1.1 1.9 2s.7 1.8.7 2.9v.1c0 .6-.1 1.1-.3 1.5s-.5.6-.9.7-.8-.1-1.4-.4c-.8-.4-1.4-1.1-1.9-2-.3-1-.6-1.9-.6-3zm1 .7c0 .7.1 1.4.4 2s.7 1.1 1.2 1.3c.5.3.9.3 1.2 0s.4-.8.4-1.6c0-.7-.1-1.4-.4-2s-.7-1.1-1.2-1.3c-.5-.3-.9-.3-1.2 0-.2.2-.4.8-.4 1.6zm8.9 7.7c-.4.3-.9.2-1.7-.2-.6-.3-1.1-.8-1.4-1.4s-.5-1.3-.5-2.1v-4.2l1 .6v4.2c0 1 .3 1.7 1 2.1s1.2.4 1.5-.1v-4.7l1 .6v6.5l-.9-.5zm2.2-1.5c0-1 .2-1.7.6-2.1s.9-.4 1.6 0 1.2.9 1.6 1.7v-3.4l1 .6v9.3l-.9-.5v-.7c-.4.3-.9.3-1.6-.1s-1.2-1-1.6-1.9c-.5-.9-.7-1.8-.7-2.9zm.9.7c0 .7.1 1.4.4 2s.6 1 1.1 1.3c.6.4 1.1.3 1.3-.2v-3c-.3-.8-.7-1.3-1.3-1.7-.5-.3-.8-.3-1.1 0s-.4.8-.4 1.6zm5.5 7.1-.8-.5 3.2-7.7.8.5z"/><path d="m598.5 594-177-102.2c-.9-.5-1.7-.1-1.7 1.1v29.1c0 1.1.7 2.4 1.7 3l177 102.2c.9.5 1.7.1 1.7-1.1v-29.1c0-1.1-.8-2.4-1.7-3z" fill="#fff"/><path d="m590.7 597.9v16.3l-140.1-80.9v-16.3zm.9-.5-141.8-81.9v18.3l141.8 81.9z" fill="#888"/><ellipse cx="434.8" cy="516.1" fill="#d50c2d" rx="5.2" ry="9.1" transform="matrix(.8660254 -.5 .5 .8660254 -199.82129 286.568792)"/><path d="m382.8 102.5-7.4-4.2 3.8-1.9-.8-1.5-5.4 2.7 5.4 8.9.8-.6-3.8-6.2 7.4 4.2c.3.2.6 0 .6-.4s-.3-.8-.6-1z" fill="#888"/><path d="m394 103.9-.8.6 3.8 6.2-7.4-4.2c-.3-.2-.6 0-.6.4s.3.9.6 1.1l7.4 4.2-3.8 1.9.8 1.5 5.4-2.7z" fill="#ccc"/><path d="m414.3 119.8-.8-.2c.4 2.2-.3 3.9-2 3.9-1.3 0-2.8-1-3.9-2.5l-.1-.1c-.1-.1-.2-.3-.3-.4-.4-.6-.7-1.2-1-1.9 0-.1 0-.1-.1-.2-.4-1.2-.5-2.5-.2-3.4.6-2 2.8-2 4.9-.1l.1.1-.7.5 3.2 2.6-1-4.2-.8.6-.5-.5c-2.5-2.4-5.2-2.3-6 .1-.6 2 .2 5 1.9 7.3l.1.1c.1.1.1.2.2.2 1.4 1.7 3.1 2.8 4.6 2.8 2 .1 3-2 2.4-4.7z" fill="#888"/><path d="m491 308.7c-.5-.3-.9-1-.9-1.6v-58.1c0-.6.4-.8.9-.5l54.6 31.5c.5.3.9 1 .9 1.6v58.2c0 .6-.4.8-.9.5z" fill="#fff"/><path d="m508.7 305-9.1-5.2c-1.9-1.1-3.5-.2-3.5 2s1.6 5 3.5 6.1l9.1 5.2c1.9 1.1 3.5.2 3.5-2s-1.6-5-3.5-6.1zm28.2 16.3-9.1-5.2c-1.9-1.1-3.5-.2-3.5 2s1.6 5 3.5 6.1l9.1 5.2c1.9 1.1 3.5.2 3.5-2s-1.6-5-3.5-6.1z" fill="#ccc"/><path d="m546.5 320.3-56.5-32.6v.7l28 16.1v19.8l.6.4v-19.8l27.9 16.1z" fill="#ccc"/><path d="m505.2 273.5 26.1 15.1v-6.9l-26.1-15.1z" fill="#5a5a5a"/><path d="m505.2 280.3 26.1 15.1v-6.8l-26.1-15.1z" fill="#5a5a5a" opacity=".7"/><path d="m505.2 287.2 26.1 15.1v-6.9l-26.1-15.1z" fill="#5a5a5a" opacity=".4"/><path d="m421.1 268.7c-.5-.3-.9-1-.9-1.6v-58.1c0-.6.4-.8.9-.5l54.6 31.5c.5.3.9 1 .9 1.6v58.2c0 .6-.4.8-.9.5z" fill="#fff"/><path d="m476.9 241.8c0-.8-.6-1.7-1.2-2.1l-54.6-31.5c-.7-.4-1.2-.1-1.2.7v58.1c0 .8.6 1.7 1.2 2.1l54.6 31.5c.7.4 1.2.1 1.2-.7zm-.6 57.8c0 .4-.3.6-.6.4l-54.6-31.5c-.3-.2-.6-.7-.6-1.1v-19.1l55.8 32.2z" fill="#d50c2d"/><path d="m458.2 276.2-19.8-11.4c-1.9-1.1-3.5-.2-3.5 2s1.6 5 3.5 6.1l19.8 11.4c1.9 1.1 3.5.2 3.5-2 .1-2.2-1.5-5-3.5-6.1z" fill="#ccc"/><g fill="#fff"><path d="m435.3 233.1 26.1 15.1v-6.8l-26.1-15.1z"/><path d="m435.3 240 26.1 15.1v-6.9l-26.1-15.1z" opacity=".7"/><path d="m435.3 246.8 26.1 15.1v-6.8l-26.1-15.1z" opacity=".4"/></g><path d="m712 707.2-320.2-184.8v2.9l320.2 184.8z" fill="url(#cF)" opacity=".3"/><path d="m712 751.7-320.2-184.8v-43.1l320.2 184.9z" fill="#fff"/><path d="m422.6 554.9 33.6 19.4v16.5l-33.6-19.4z" fill="#ccc"/><path d="m457.5 575 12.2 7c1.2.7 2.1 2.5 2.1 4v11c0 1.5-.9 2.3-2.1 1.6l-12.2-7zm-36.2-4.4-12.2-7c-1.2-.7-2.1-2.5-2.1-4v-10.9c0-1.5.9-2.3 2.1-1.6l12.2 7z" fill="#e6e6e6"/><path d="m702.4 714.4-98.7-57c-.6-.3-1.1-.1-1.1.6v18c0 .7.5 1.5 1.1 1.8l98.7 57c.6.3 1.1.1 1.1-.6v-18c-.1-.6-.6-1.5-1.1-1.8z" fill="#d50c2d"/><path d="m673.8 704.1-41.2-23.8c-1.9-1.1-3.5-.2-3.5 2s1.6 5 3.5 6.1l41.2 23.8c1.9 1.1 3.5.2 3.5-2 .1-2.2-1.5-5-3.5-6.1z" fill="#fff"/><path d="m393.1 570.1v-422.6l-2.5-1.4v422.5z" fill="url(#cG)" opacity=".3"/><path d="m369.5 556.5v-422.6l22.3 12.9v422.6z" fill="#fff"/><path d="m369.5 135.6 342.5 197.7v-2.9l-342.5-197.7z" fill="url(#cH)" opacity=".3"/><path d="m369.5 108.4 342.5 197.7v25.8l-342.5-197.7z" fill="#fff"/><path d="m386.4 139 29.4 17c3.4 2 6.2-.1 6.2-4.7 0-4.5-2.8-9.8-6.2-11.8l-29.4-17c-3.4-2-6.2.1-6.2 4.7 0 4.5 2.8 9.9 6.2 11.8z" fill="#d50c2d"/><path d="m695.3 317.4 1.9 1.1c3.4 2 6.2-.1 6.2-4.7 0-4.5-2.8-9.8-6.2-11.8l-1.9-1.1c-3.4-2-6.2.1-6.2 4.7.1 4.5 2.8 9.8 6.2 11.8zm-22.7-13.2 1.9 1.1c3.4 2 6.2-.1 6.2-4.7 0-4.5-2.8-9.8-6.2-11.8l-1.9-1.1c-3.4-2-6.2.1-6.2 4.7 0 4.5 2.8 9.9 6.2 11.8z" fill="#888"/><path d="m498.4 458.7-76.9-44.4c-.9-.5-1.7-.1-1.7 1v29.3c0 1.1.8 2.4 1.7 3l76.9 44.4c.9.5 1.7.1 1.7-1v-29.4c0-1-.8-2.4-1.7-2.9z" fill="#d50c2d"/><path d="m480.6 460.9-41.2-23.8c-1.9-1.1-3.5-.2-3.5 2s1.6 5 3.5 6.1l41.2 23.8c1.9 1.1 3.5.2 3.5-2s-1.6-5-3.5-6.1z" fill="#fff"/><path d="m591.5 512.4-1.3-.7v1l1.3.7zm-2.6-1.4-1.3-.7v1l1.3.7zm-2.6-1.5-1.3-.7v1l1.3.7zm-2.5-1.5-1.3-.7v1l1.3.7zm-2.6-1.5-1.3-.7v1l1.3.7zm-2.6-1.5-1.3-.7v1l1.3.7zm-2.5-1.5-1.3-.7v1l1.3.7zm-2.6-1.4-1.3-.7v1l1.3.7zm-2.6-1.5-1.3-.7v1l1.3.7zm-2.5-1.5-1.3-.7v1l1.3.7zm-2.6-1.5-1.3-.7v1l1.3.7zm-2.6-1.5-1.3-.7v1l1.3.7zm-2.5-1.5-1.3-.7v1l1.3.7zm-2.6-1.4-1.3-.7v1l1.3.7zm-2.6-1.5-1.3-.7v1l1.3.7zm-2.6-1.5-1.3-.7v1l1.3.7zm-2.5-1.5-1.3-.7v1l1.3.7zm-2.6-1.5-1.3-.7v1l1.3.7zm-2.6-1.5-1.2-.7v1l1.3.7v-1zm-2.5-1.4-1.3-.7v1l1.3.7zm-2.6-1.5-1.3-.7v1l1.3.7zm-2.6-1.5-1.3-.7v1l1.3.7zm-2.5-1.5-1.3-.7v1l1.3.7zm-2.6-1.5-1.3-.7v1l1.3.7zm-2.6-1.5-1.3-.7v1l1.3.7zm-2.5-1.4-1.3-.7v1l1.3.7zm-2.6-1.5-1.3-.7v1l1.3.7zm-2.6-1.5-1.3-.7v1l1.3.7zm-2.5-1.5-1.3-.7v1l1.3.7zm-2.6-1.5-1.3-.7v1l1.3.7zm-2.6-1.4c-.4-.2-.8-.1-1.1.1l.7 1c.1-.1.3-.1.6 0zm-.6 1.7-.9-.5v1.5l.9.5zm0 3-.9-.5v1.5l.9.5zm0 2.9-.9-.5v1.5l.9.5zm0 3-.9-.5v1.5l.9.5zm0 3-.9-.5v1.5l.9.5zm0 2.9-.9-.5v1.5l.9.5zm0 3-.9-.5v1.4l.9.5zm0 3-.9-.5v1.5l.9.5zm0 2.9-.9-.5v1.5l.9.5zm0 3-.9-.5v1.5l.9.5zm0 2.7-.8-.2c.1.4.2.7.4 1.1l.4-.6c.2.2.1 0 0-.3zm2.5 2.1-1.3-.7v1l1.3.7zm2.6 1.5-1.3-.7v1l1.3.7zm2.5 1.5-1.3-.7v1l1.3.7zm2.6 1.5-1.3-.7v1l1.3.7zm2.6 1.5-1.3-.7v1l1.3.7zm2.5 1.4-1.3-.7v1l1.3.7zm2.6 1.5-1.3-.7v1l1.3.7zm2.6 1.5-1.3-.7v1l1.3.7zm2.5 1.5-1.3-.7v1l1.3.7zm2.6 1.5-1.3-.7v1l1.3.7zm2.6 1.5-1.3-.7v1l1.3.7zm2.6 1.4-1.3-.7v1l1.3.7zm2.5 1.5-1.3-.7v1l1.3.7zm2.6 1.5-1.3-.7v1l1.3.7zm2.6 1.5-1.3-.7v1l1.3.7zm2.5 1.5-1.3-.7v1l1.3.7zm2.6 1.5-1.3-.7v1l1.3.7zm2.6 1.4-1.3-.7v1l1.3.7zm2.5 1.5-1.3-.7v1l1.3.7zm2.6 1.5-1.3-.7v1l1.3.7zm2.6 1.5-1.3-.7v1l1.3.7zm2.5 1.5-1.3-.7v1l1.3.7zm2.6 1.4-1.3-.7v1l1.3.7zm2.6 1.5-1.3-.7v1l1.3.7zm2.5 1.5-1.3-.7v1l1.3.7zm2.6 1.5-1.3-.7v1l1.3.7zm2.6 1.5-1.3-.7v1l1.3.7zm2.5 1.5-1.3-.7v1l1.3.7zm2.6 1.4-1.3-.7v1l1.3.7zm2.6 1.5-1.3-.7v1l1.3.7zm1.4.3c-.1.2-.3.2-.5.2l.3 1.1c.3.1.6 0 .8-.2l.1-.1zm1-1.9-.9-.5v1.5l.9.5zm0-3-.9-.5v1.5l.9.5zm0-2.9-.9-.5v1.5l.9.5zm0-3-.9-.5v1.5l.9.5zm0-2.9-.9-.5v1.5l.9.5zm0-3-.9-.5v1.5l.9.5zm0-3-.9-.5v1.5l.9.5zm0-2.9-.9-.5v1.5l.9.5zm0-3-.9-.5v1.5l.9.5zm0-3-.9-.5v1.5l.9.5zm-1.2-3-.3.8c.2.2.4.5.5.8h.8c-.2-.7-.6-1.2-1-1.6zm-18.4 1.8-41.2-23.8c-1.9-1.1-3.5-.2-3.5 2s1.6 5 3.5 6.1l41.2 23.8c1.9 1.1 3.5.2 3.5-2 .1-2.3-1.5-5-3.5-6.1z" fill="#ccc"/><path d="m629.5 489.6c-.5-.3-.9-1-.9-1.6v-58.2c0-.6.4-.8.9-.5l54.6 31.5c.5.3.9 1 .9 1.6v58.2c0 .6-.4.8-.9.5z" fill="#fff"/><path d="m685.1 501.1-56.5-32.6v.7l56.5 32.6z" fill="#ccc"/><path d="m668.7 471.8c0-7.6-5.3-16.7-11.8-20.5s-11.8-.7-11.8 6.8v10.6c0 1.7 1.2 3.8 2.7 4.7l9.1 5.3c6.5 3.7 11.8.6 11.8-6.9" fill="#5a5a5a"/><path d="m661.1 457c-3.1-1.8-5.5-.3-5.5 3.2v3.4l-2.9-1.7c-3.1-1.8-5.5-.3-5.5 3.2s2.5 7.8 5.5 9.6 5.5.3 5.5-3.2v-3.4l2.9 1.7c3.1 1.8 5.5.3 5.5-3.2s-2.5-7.9-5.5-9.6zm-5.6 13c0 1.9-1.3 2.7-3 1.7s-3-3.2-3-5.1 1.3-2.7 3-1.7l3 1.7zm5.6-3.2-3-1.7v-3.4c0-1.9 1.3-2.7 3-1.7 1.6.9 3 3.2 3 5.1s-1.4 2.6-3 1.7z" fill="#fff" opacity=".4"/><path d="m662.3 457.9c-.4-.4-.8-.6-1.2-.9-3.1-1.8-5.6-.3-5.6 3.2v3.4l-2.3-1.3c-.7-.4-1.3-.1-1.3.7s.6 1.8 1.3 2.2l1.9 1.1c.2.1.4.5.4.7v2.9c0 1.9-1.3 2.6-2.9 1.7-.6-.3-.7-.5-1.1-.7-.8-.5-1.3-.1-1.3.7 0 .7.5 1.6 1.1 2.1.4.4.8.6 1.2.9 3.1 1.8 5.6.3 5.6-3.2v-3.4l2.3 1.3c.7.4 1.3.1 1.3-.7s-.6-1.8-1.3-2.2l-1.9-1.1c-.2-.1-.4-.5-.4-.7v-2.9c0-1.9 1.3-2.6 2.9-1.7.6.3.7.5 1.1.7.8.5 1.3.1 1.3-.7 0-.7-.5-1.6-1.1-2.1z" fill="#fff"/><path d="m666.7 497.1-19.8-11.4c-1.9-1.1-3.5-.2-3.5 2s1.6 5 3.5 6.1l19.8 11.4c1.9 1.1 3.5.2 3.5-2s-1.5-5-3.5-6.1z" fill="#ccc"/><path d="m407 283.2c0-2.3 1.6-3.2 3.5-2 2 1.1 3.5 3.9 3.5 6.1s-1.6 3.2-3.5 2c-1.9-1.1-3.5-3.8-3.5-6.1zm69.9 36.3-63.1-36.5c1 1.6 1.6 3.4 1.6 5s-.6 2.7-1.6 3.2l63.1 36.4c1.9 1.1 3.5.2 3.5-2s-1.6-5-3.5-6.1zm-69.9 69.1c0-2.3 1.6-3.2 3.5-2s3.5 3.9 3.5 6.1c0 2.3-1.6 3.2-3.5 2s-3.5-3.8-3.5-6.1zm69.9 36.3-63.1-36.4c1 1.6 1.6 3.4 1.6 5s-.6 2.7-1.6 3.2l63.1 36.4c1.9 1.1 3.5.2 3.5-2s-1.6-5.1-3.5-6.2zm-69.9 41.3c0-2.3 1.6-3.2 3.5-2s3.5 3.9 3.5 6.1c0 2.3-1.6 3.2-3.5 2s-3.5-3.9-3.5-6.1zm69.9 36.2-63.1-36.4c1 1.6 1.6 3.4 1.6 5s-.6 2.7-1.6 3.2l63.1 36.4c1.9 1.1 3.5.2 3.5-2 0-2.3-1.6-5-3.5-6.2zm-69.9-319.7c0-2.3 1.6-3.2 3.5-2s3.5 3.9 3.5 6.1-1.6 3.2-3.5 2-3.5-3.8-3.5-6.1zm69.9 36.3-63.1-36.4c1 1.6 1.6 3.4 1.6 5s-.6 2.7-1.6 3.2l63.1 36.4c1.9 1.1 3.5.2 3.5-2 0-2.3-1.6-5.1-3.5-6.2z" fill="#ccc"/><path d="m491 409.6c-.5-.3-.9-1-.9-1.6v-58.2c0-.6.4-.8.9-.5l54.6 31.5c.5.3.9 1 .9 1.6v58.2c0 .6-.4.8-.9.5z" fill="#fff"/><path d="m528.1 417.1-19.8-11.4c-1.9-1.1-3.5-.2-3.5 2s1.6 5 3.5 6.1l19.8 11.4c1.9 1.1 3.5.2 3.5-2 .1-2.3-1.5-5-3.5-6.1zm18.4 4-56.5-32.6v.7l56.5 32.6z" fill="#ccc"/><path d="m520.4 387c-.4-.2.1.3.6.7.1-.1.3-.1.4-.2-.3-.1-.6-.3-1-.5m2.2.6c.2-.2.4-.5.5-.9-.1.3-.2.4-.3.6-.7.1-.1-.3 0-.6-.9.7-.2.6-.2.9m.7-1.9c.1-.8-.1-.6-.2-.4.1.1.2.7.2.4m-4.3-13.7c.2.2.5.3.4.4.2.1.3.1-.4-.4m.4.4h-.2z" fill="#5a5a5a"/><path d="m525.9 387.5c0 .7-.2 1-.4 1.5h-.3c-.3.5 0 .4-.2.8-.4.2-1.3.6-1.6.6-.2-.1.1-.2.2-.3-.6.1-.5.4-1.4.2v-.1c-2.2-.1-5.2-4.2-5.2-7.4 0 .2-.1.1-.1.2-.1-1.7.7-2.9 2-2.9s2.8 1.2 3.7 2.7c-.5-1-1.5-2.4-2.7-3s-2.2-.4-2.6.3c-.6.1-.7 1.3-.9 1.4-.4 2.7.7 4.6 2.4 7.1.3.4.1.3.1.5-.6-.6-1.1-1.4-1.5-2.2.2.5.5 1 .8 1.5-.5-.5-1.2-2.2-1.5-2.4.9 2.4 3.7 5.5 5.2 5.6-.7-.4-1.5-.9-2.3-1.6-.3-.4-.8-1-.7-1.1 2 2 4.1 3 5.8 2.4.4-.2.9-.5 1.1-.5-.2.2 0 .2-.1.4.4-.6-.2-.4.5-1.1l.2.5c-.1-.7.7-1.1.7-2.2.2-.2.2.5 0 1.1.3-.7.1-.9.2-1.6.1.3.2.6.2.9-.2-.9.2-1.3.3-1.7-.1-.1-.3.2-.3-.8 0-.4.1-.2.1-.3-.1-.1-.3-.5-.4-1.2.1-.1.2.5.3.6-.1-.5-.2-1-.2-1.3-.3-1-.1 0-.4-.5-.4-1.5.3-.1.3-.7.5 1.2.8 2.7 1 3.4-.1-.8-.3-1.5-.5-2.3.2.2-.3-1.6.2-.3-.5-2.4-2.1-5.3-3.6-7.1.2.3.4.7.3.7-.8-1-.6-.9-.7-1.2-.6-.6-.7-.4-1.1-.6-1.1-1.3-1.4-1.4-2.4-2.4l.1.3c-.8-.7-.9-.4-1.7-1-.1-.1.3 0 .5.1-.7-.3-.7-.6-1.4-.8h.6c-.6-.3-1.4-.4-1.2-.6-1-.1-2.7-.4-3.7.1v-.3c-.5.4-1.9.7-2.1 1.5h-.1c-.2.3-.4.7-.6 1.1-.3.4-.5 0-.4.1-.6 1-.9 2-1.2 2.8.2.4 0 1.9.1 3.2-.3 6.1 3.8 14.5 8.2 18.4.7.6 1.6 1.2 2.5 1.7-1-.9-1.1-.8-2.1-1.7-.7-.8-.8-1.3-1.3-2.1l.2.5c-1-.9-.6-.8-1.3-1.5l.2-.2c-.3-.2-.8-1.1-1-1.5l-.3-.2c-.4-.8-.6-1.4-.6-1.7l-.1.2c-.1-.3-1.5-3-.8-2.2-.1-.2-.3-.4-.5-.9l.2-.1c-.3-.7-.6-1.5-.6-1.7.2.4.3.5.4.6-.9-3-.9-.7-1.6-3.4l.1.1c-.1-.3-.2-.5-.3-.7l.1-.7c-.6-1.2-.2-3.6-.1-5.1.1-.6.5-.9.9-1.8l-.2-.2c.4-.6 2.3-1.9 3.2-1.3.4-.4-.1 0-.2-.3.9-.6 1.2-.1 1.9.1.7-.1-.6-.2-.3-.3 1.2.3.8-.3 2.4.4.2.2-.4 0-.5 0 1 0 3.1 1.4 4.5 2.9 1.6 1.8 3.4 5.4 3.5 7.8l.1.1c0 .9.1 2.1-.2 3z" fill="#5a5a5a"/><path d="m516.2 385.1-.1.3c.3.5.5 1.1.8 1.6-.2-.6-.4-1-.7-1.9m.6.4c-.1-.3-.2-.5-.3-.8.1.4.3.8.4 1.3zm10.8 3.5-.1.1c-.1.8-.3 1.5-.7 2.1.4-.6.6-1.4.8-2.2m-8.6-17.1c.3 0 .7.3.9.4-.4-.2-.7-.4-1.1-.5zm-9.3.3c.1.7-.4.7.1.5.3-.5-.1-.2-.1-.5m-.6 2.7c.1-.4.2-.6.2-.8-.3.2-.2.5-.2.8" fill="#5a5a5a"/><path d="m714.1 255.9-346.7-200.2v499.6l346.7 200.2zm-2.1 495.8-342.5-197.7v-471.3l342.5 197.7z"/><path d="m646.6 230.3-13-7.5c-.2-.1-.4-.5-.4-.7s.2-.4.4-.2l13 7.5c.2.1.4.5.4.7s-.1.3-.4.2zm53 30 4.3-2.5c.2-.1.2-.4 0-.7s-.4-.4-.6-.3l-4.3 2.5-4.3-7.4c-.2-.3-.4-.4-.6-.3s-.2.4 0 .7l4.3 7.4-4.3 2.5c-.2.1-.2.4 0 .7.1.1.2.3.3.3.1.1.2.1.3 0l4.3-2.5 4.3 7.4c.1.1.2.3.3.3.1.1.2.1.3 0 .2-.1.2-.4 0-.7zm-24.1-8.1-10-5.8v-11.6l10 5.8zm-9.2-6.3 8.3 4.8v-9.6l-8.3-4.8z" fill="#fff"/><path d="m721.5 751.1-7.4 4.3v-499.5l7.4-4.3z" fill="#1a1a1a"/><path d="m374.8 51.4-7.4 4.3 346.7 200.2 7.4-4.3z" fill="#4d4d4d"/></svg>